<svg width="209" height="52" viewBox="0 0 209 52" fill="none" xmlns="http://www.w3.org/2000/svg">
<path d="M15.4711 21.8135V30.0826H37.8182H60.1653V21.8135L37.8182 0L15.4711 21.8135Z" fill="#53BA14"/>
<path d="M0 21.8135V30.0826H22.7769H45.5537V21.8135L22.7769 0L0 21.8135Z" fill="#6667AC"/>
<path fill-rule="evenodd" clip-rule="evenodd" d="M30.0827 7.28564L15.4811 21.7918V30.206H22.3421H37.8232H44.6842V21.7918L30.0827 7.28564Z" fill="#143255"/>
<path d="M83.5095 30.9703C81.0341 30.9703 78.8968 30.4317 77.0976 29.3544C75.3098 28.2772 73.9288 26.7702 72.9547 24.8334C71.9921 22.8967 71.5108 20.6448 71.5108 18.0777C71.5108 15.5107 71.9921 13.2588 72.9547 11.322C73.9288 9.38528 75.3098 7.87828 77.0976 6.80104C78.8968 5.72379 81.0341 5.18517 83.5095 5.18517C85.9848 5.18517 88.1164 5.72379 89.9042 6.80104C91.7034 7.87828 93.0843 9.38528 94.047 11.322C95.0211 13.2588 95.5081 15.5107 95.5081 18.0777C95.5081 20.6448 95.0211 22.8967 94.047 24.8334C93.0843 26.7702 91.7034 28.2772 89.9042 29.3544C88.1164 30.4317 85.9848 30.9703 83.5095 30.9703ZM83.5095 26.5696C85.0795 26.5926 86.3859 26.2545 87.4288 25.5554C88.4717 24.8564 89.2509 23.8651 89.7666 22.5815C90.2938 21.298 90.5574 19.7967 90.5574 18.0777C90.5574 16.3587 90.2938 14.8689 89.7666 13.6083C89.2509 12.3477 88.4717 11.3679 87.4288 10.6688C86.3859 9.96974 85.0795 9.60875 83.5095 9.58583C81.9394 9.56291 80.633 9.90098 79.5901 10.6C78.5472 11.2991 77.7622 12.2904 77.2351 13.5739C76.7194 14.8575 76.4615 16.3587 76.4615 18.0777C76.4615 19.7967 76.7194 21.2865 77.2351 22.5472C77.7622 23.8078 78.5472 24.7876 79.5901 25.4867C80.633 26.1857 81.9394 26.5467 83.5095 26.5696ZM98.2682 30.4546V26.5696C98.7954 26.604 99.2423 26.5582 99.609 26.4321C99.9758 26.306 100.285 26.0768 100.537 25.7445C100.801 25.4007 101.03 24.9308 101.225 24.3349C101.42 23.7275 101.603 22.9712 101.775 22.0658C102.05 20.6333 102.279 19.1263 102.463 17.5448C102.657 15.9519 102.818 14.3933 102.944 12.8691C103.07 11.3449 103.167 9.95828 103.236 8.70913C103.305 7.44853 103.356 6.44577 103.391 5.70087H120.272V30.4546H115.596V10.0672H107.688C107.643 10.7089 107.58 11.5455 107.499 12.5769C107.431 13.6083 107.333 14.7486 107.207 15.9977C107.081 17.2469 106.926 18.5419 106.743 19.8827C106.56 21.2235 106.336 22.5242 106.073 23.7848C105.832 25.0111 105.54 26.0998 105.196 27.051C104.852 27.9907 104.394 28.7642 103.821 29.3716C103.259 29.9675 102.531 30.3629 101.637 30.5577C100.744 30.7526 99.6205 30.7182 98.2682 30.4546ZM147.07 30.4546V5.70087H142.325L131.564 22.2033V5.70087H126.82V30.4546H131.564L142.325 13.9521V30.4546H147.07ZM153.585 30.4546V5.70087H157.78L165.962 22.1346L174.145 5.70087H178.339V30.4546H173.973V15.6711L166.787 30.4546H165.137L157.952 15.6711V30.4546H153.585ZM184.883 30.4546V5.70087H205.305V30.4546H200.63V10.0672H189.559V30.4546H184.883Z" fill="#232323"/>
<path d="M0.09 46L2.961 42.6475L0.3375 39.52H1.17L3.6765 42.5485V39.52H4.338V42.5485L6.8445 39.52H7.677L5.0535 42.6475L7.9245 46H7.0785L4.338 42.7915V46H3.6765V42.7915L0.9405 46H0.09ZM14.8961 46V39.52H14.2301L10.6616 44.83V39.52H9.99563V46H10.6616L14.2301 40.6855V46H14.8961ZM17.0568 46V45.4105C17.2218 45.4255 17.3583 45.4195 17.4663 45.3925C17.5743 45.3625 17.6613 45.2965 17.7273 45.1945C17.7963 45.0925 17.8563 44.941 17.9073 44.74C17.9583 44.536 18.0093 44.2705 18.0603 43.9435C18.1173 43.5895 18.1653 43.237 18.2043 42.886C18.2463 42.535 18.2823 42.1795 18.3123 41.8195C18.3453 41.4565 18.3723 41.0845 18.3933 40.7035C18.4143 40.3225 18.4338 39.928 18.4518 39.52H22.5423V46H21.8808V40.1545H19.0908C19.0698 40.4635 19.0488 40.78 19.0278 41.104C19.0098 41.428 18.9858 41.7595 18.9558 42.0985C18.9288 42.4375 18.8943 42.787 18.8523 43.147C18.8133 43.504 18.7638 43.873 18.7038 44.254C18.6558 44.542 18.5988 44.809 18.5328 45.055C18.4698 45.301 18.3798 45.508 18.2628 45.676C18.1488 45.844 17.9943 45.9595 17.7993 46.0225C17.6073 46.0855 17.3598 46.078 17.0568 46ZM27.7732 46.135C27.1282 46.135 26.5837 45.9925 26.1397 45.7075C25.6957 45.4195 25.3597 45.022 25.1317 44.515C24.9037 44.008 24.7897 43.423 24.7897 42.76C24.7897 42.097 24.9037 41.512 25.1317 41.005C25.3597 40.498 25.6957 40.102 26.1397 39.817C26.5837 39.529 27.1282 39.385 27.7732 39.385C28.4212 39.385 28.9657 39.529 29.4067 39.817C29.8507 40.102 30.1867 40.498 30.4147 41.005C30.6457 41.512 30.7612 42.097 30.7612 42.76C30.7612 43.423 30.6457 44.008 30.4147 44.515C30.1867 45.022 29.8507 45.4195 29.4067 45.7075C28.9657 45.9925 28.4212 46.135 27.7732 46.135ZM27.7732 45.5005C28.2802 45.5005 28.7032 45.385 29.0422 45.154C29.3812 44.923 29.6347 44.602 29.8027 44.191C29.9737 43.777 30.0592 43.3 30.0592 42.76C30.0592 42.22 29.9737 41.7445 29.8027 41.3335C29.6347 40.9225 29.3812 40.6015 29.0422 40.3705C28.7032 40.1395 28.2802 40.0225 27.7732 40.0195C27.2662 40.0195 26.8447 40.135 26.5087 40.366C26.1727 40.597 25.9192 40.9195 25.7482 41.3335C25.5802 41.7445 25.4947 42.22 25.4917 42.76C25.4887 43.3 25.5712 43.7755 25.7392 44.1865C25.9102 44.5945 26.1652 44.9155 26.5042 45.1495C26.8432 45.3805 27.2662 45.4975 27.7732 45.5005ZM33.0124 46V39.52H33.6784V44.83L37.2469 39.52H37.9129V46H37.2469V40.6855L33.6784 46H33.0124ZM35.5144 38.944C35.3014 38.944 35.1064 38.8915 34.9294 38.7865C34.7554 38.6815 34.6159 38.542 34.5109 38.368C34.4059 38.191 34.3534 37.996 34.3534 37.783H34.9024C34.9024 37.951 34.9624 38.095 35.0824 38.215C35.2024 38.335 35.3464 38.395 35.5144 38.395C35.6854 38.395 35.8294 38.335 35.9464 38.215C36.0664 38.095 36.1264 37.951 36.1264 37.783H36.6754C36.6754 37.996 36.6229 38.191 36.5179 38.368C36.4159 38.542 36.2764 38.6815 36.0994 38.7865C35.9224 38.8915 35.7274 38.944 35.5144 38.944ZM43.6753 46V39.52H46.1773C46.2403 39.52 46.3108 39.523 46.3888 39.529C46.4698 39.532 46.5508 39.541 46.6318 39.556C46.9708 39.607 47.2573 39.7255 47.4913 39.9115C47.7283 40.0945 47.9068 40.3255 48.0268 40.6045C48.1498 40.8835 48.2113 41.1925 48.2113 41.5315C48.2113 41.8675 48.1498 42.175 48.0268 42.454C47.9038 42.733 47.7238 42.9655 47.4868 43.1515C47.2528 43.3345 46.9678 43.4515 46.6318 43.5025C46.5508 43.5145 46.4698 43.5235 46.3888 43.5295C46.3108 43.5355 46.2403 43.5385 46.1773 43.5385H44.3368V46H43.6753ZM44.3368 42.9085H46.1593C46.2133 42.9085 46.2763 42.9055 46.3483 42.8995C46.4203 42.8935 46.4908 42.883 46.5598 42.868C46.7818 42.82 46.9633 42.7285 47.1043 42.5935C47.2483 42.4585 47.3548 42.298 47.4238 42.112C47.4958 41.926 47.5318 41.7325 47.5318 41.5315C47.5318 41.3305 47.4958 41.137 47.4238 40.951C47.3548 40.762 47.2483 40.6 47.1043 40.465C46.9633 40.33 46.7818 40.2385 46.5598 40.1905C46.4908 40.1755 46.4203 40.1665 46.3483 40.1635C46.2763 40.1575 46.2133 40.1545 46.1593 40.1545H44.3368V42.9085ZM49.8312 46L52.0632 39.52H52.9407L55.1727 46H54.4842L52.3647 39.889H52.6257L50.5197 46H49.8312ZM50.8257 44.4295V43.8085H54.1737V44.4295H50.8257ZM57.3353 46V39.52H58.0013V44.83L61.5698 39.52H62.2358V46H61.5698V40.6855L58.0013 46H57.3353ZM59.8373 38.944C59.6243 38.944 59.4293 38.8915 59.2523 38.7865C59.0783 38.6815 58.9388 38.542 58.8338 38.368C58.7288 38.191 58.6763 37.996 58.6763 37.783H59.2253C59.2253 37.951 59.2853 38.095 59.4053 38.215C59.5253 38.335 59.6693 38.395 59.8373 38.395C60.0083 38.395 60.1523 38.335 60.2693 38.215C60.3893 38.095 60.4493 37.951 60.4493 37.783H60.9983C60.9983 37.996 60.9458 38.191 60.8408 38.368C60.7388 38.542 60.5993 38.6815 60.4223 38.7865C60.2453 38.8915 60.0503 38.944 59.8373 38.944ZM67.4699 46.135C66.8249 46.135 66.2804 45.9925 65.8364 45.7075C65.3924 45.4195 65.0564 45.022 64.8284 44.515C64.6004 44.008 64.4864 43.423 64.4864 42.76C64.4864 42.097 64.6004 41.512 64.8284 41.005C65.0564 40.498 65.3924 40.102 65.8364 39.817C66.2804 39.529 66.8249 39.385 67.4699 39.385C68.1179 39.385 68.6624 39.529 69.1034 39.817C69.5474 40.102 69.8834 40.498 70.1114 41.005C70.3424 41.512 70.4579 42.097 70.4579 42.76C70.4579 43.423 70.3424 44.008 70.1114 44.515C69.8834 45.022 69.5474 45.4195 69.1034 45.7075C68.6624 45.9925 68.1179 46.135 67.4699 46.135ZM67.4699 45.5005C67.9769 45.5005 68.3999 45.385 68.7389 45.154C69.0779 44.923 69.3314 44.602 69.4994 44.191C69.6704 43.777 69.7559 43.3 69.7559 42.76C69.7559 42.22 69.6704 41.7445 69.4994 41.3335C69.3314 40.9225 69.0779 40.6015 68.7389 40.3705C68.3999 40.1395 67.9769 40.0225 67.4699 40.0195C66.9629 40.0195 66.5414 40.135 66.2054 40.366C65.8694 40.597 65.6159 40.9195 65.4449 41.3335C65.2769 41.7445 65.1914 42.22 65.1884 42.76C65.1854 43.3 65.2679 43.7755 65.4359 44.1865C65.6069 44.5945 65.8619 44.9155 66.2009 45.1495C66.5399 45.3805 66.9629 45.4975 67.4699 45.5005ZM72.7091 46V39.52H73.3706V42.4405H76.9526V39.52H77.6096V46H76.9526V43.075H73.3706V46H72.7091ZM84.4655 46L85.1945 44.4655L82.8905 39.52H83.624L85.541 43.7545L87.494 39.52H88.2005L85.1855 46H84.4655ZM93.1208 46V39.52H98.0843V46H97.4228V40.1545H93.7823V46H93.1208ZM100.243 46L102.475 39.52H103.353L105.585 46H104.896L102.777 39.889H103.038L100.932 46H100.243ZM101.238 44.4295V43.8085H104.586V44.4295H101.238ZM107.748 46V39.52H110.25C110.313 39.52 110.383 39.523 110.461 39.529C110.542 39.532 110.623 39.541 110.704 39.556C111.043 39.607 111.33 39.7255 111.564 39.9115C111.801 40.0945 111.979 40.3255 112.099 40.6045C112.222 40.8835 112.284 41.1925 112.284 41.5315C112.284 41.8675 112.222 42.175 112.099 42.454C111.976 42.733 111.796 42.9655 111.559 43.1515C111.325 43.3345 111.04 43.4515 110.704 43.5025C110.623 43.5145 110.542 43.5235 110.461 43.5295C110.383 43.5355 110.313 43.5385 110.25 43.5385H108.409V46H107.748ZM108.409 42.9085H110.232C110.286 42.9085 110.349 42.9055 110.421 42.8995C110.493 42.8935 110.563 42.883 110.632 42.868C110.854 42.82 111.036 42.7285 111.177 42.5935C111.321 42.4585 111.427 42.298 111.496 42.112C111.568 41.926 111.604 41.7325 111.604 41.5315C111.604 41.3305 111.568 41.137 111.496 40.951C111.427 40.762 111.321 40.6 111.177 40.465C111.036 40.33 110.854 40.2385 110.632 40.1905C110.563 40.1755 110.493 40.1665 110.421 40.1635C110.349 40.1575 110.286 40.1545 110.232 40.1545H108.409V42.9085ZM114.529 46V39.52H115.191V42.58L118.147 39.52H118.993L115.974 42.6475L119.241 46H118.377L115.191 42.76V46H114.529ZM120.773 46L123.005 39.52H123.882L126.114 46H125.426L123.306 39.889H123.567L121.461 46H120.773ZM121.767 44.4295V43.8085H125.115V44.4295H121.767ZM136.329 46V39.52H135.663L132.095 44.83V39.52H131.429V46H132.095L135.663 40.6855V46H136.329ZM138.94 46V39.52H139.547L142.094 44.9695L144.628 39.52H145.244V45.9955H144.614V40.996L142.306 46H141.878L139.574 40.996V46H138.94ZM147.983 46V45.2305H148.753V46H147.983ZM154.644 46V39.52H158.694V40.1545H155.306V46H154.644ZM160.141 46L162.373 39.52H163.25L165.482 46H164.794L162.674 39.889H162.935L160.829 46H160.141ZM161.135 44.4295V43.8085H164.483V44.4295H161.135ZM167.645 46V39.52H171.695V40.1545H168.307V46H167.645ZM173.142 46L175.374 39.52H176.251L178.483 46H177.795L175.675 39.889H175.936L173.83 46H173.142ZM174.136 44.4295V43.8085H177.484V44.4295H174.136ZM180.646 46V39.52H183.148C183.211 39.52 183.281 39.523 183.359 39.529C183.44 39.532 183.521 39.541 183.602 39.556C183.941 39.607 184.228 39.7255 184.462 39.9115C184.699 40.0945 184.877 40.3255 184.997 40.6045C185.12 40.8835 185.182 41.1925 185.182 41.5315C185.182 41.8675 185.12 42.175 184.997 42.454C184.874 42.733 184.694 42.9655 184.457 43.1515C184.223 43.3345 183.938 43.4515 183.602 43.5025C183.521 43.5145 183.44 43.5235 183.359 43.5295C183.281 43.5355 183.211 43.5385 183.148 43.5385H181.307V46H180.646ZM181.307 42.9085H183.13C183.184 42.9085 183.247 42.9055 183.319 42.8995C183.391 42.8935 183.461 42.883 183.53 42.868C183.752 42.82 183.934 42.7285 184.075 42.5935C184.219 42.4585 184.325 42.298 184.394 42.112C184.466 41.926 184.502 41.7325 184.502 41.5315C184.502 41.3305 184.466 41.137 184.394 40.951C184.325 40.762 184.219 40.6 184.075 40.465C183.934 40.33 183.752 40.2385 183.53 40.1905C183.461 40.1755 183.391 40.1665 183.319 40.1635C183.247 40.1575 183.184 40.1545 183.13 40.1545H181.307V42.9085ZM192.328 46V39.52H191.662L188.093 44.83V39.52H187.427V46H188.093L191.662 40.6855V46H192.328ZM194.939 46V39.52H195.6V42.4405H199.182V39.52H199.839V46H199.182V43.075H195.6V46H194.939ZM202 46L204.232 39.52H205.109L207.341 46H206.653L204.533 39.889H204.794L202.688 46H202ZM202.994 44.4295V43.8085H206.342V44.4295H202.994Z" fill="#6667AC"/>
</svg>
