<svg width="20" height="20" viewBox="0 0 20 20" fill="none" xmlns="http://www.w3.org/2000/svg">
<path d="M0.119051 5.80769C0.875451 9.25228 2.60534 12.4071 5.10295 14.8969C7.59276 17.3945 10.7476 19.1244 14.1921 19.8808C15.2738 20.0996 16.3982 19.9089 17.3472 19.3456C18.2961 18.7823 19.0021 17.8866 19.3279 16.8322L19.8411 15.2283L14.861 12.7383L12.4759 15.1234C10.7877 14.3902 9.2476 13.355 7.93125 12.0685C6.64483 10.7522 5.60959 9.21198 4.87645 7.52379L7.26155 5.13869L4.77155 0.158691L3.16765 0.671891C2.11329 0.997791 1.21758 1.7037 0.654271 2.65268C0.0909612 3.60165 -0.0997787 4.72604 0.119051 5.80769Z" fill="white"/>
</svg>
