<svg width="1552" height="662" viewBox="0 0 1552 662" fill="none" xmlns="http://www.w3.org/2000/svg">
<path d="M-48 36H1552V662H-48V36Z" fill="url(#paint0_linear_223_2)"/>
<g filter="url(#filter0_d_223_2)">
<path d="M1471.37 37.1131L1468.58 36.8032L1472.3 25.958L1474.16 28.4369L1471.37 37.1131Z" fill="#6D2626"/>
<path d="M1482.52 27.1972C1479.22 26.7841 1472.54 25.9578 1472.3 25.9578L1474.16 28.4367L1481.9 29.3663L1482.52 27.1972Z" fill="#992B2B"/>
<path d="M1489.34 44.8594L1490.89 46.4088L1494.3 34.9438H1492.44L1489.34 44.8594Z" fill="#892A2A"/>
<path d="M1471.06 43.9298L1468.58 43.0002L1473.85 47.6482L1475.08 47.0285L1471.06 43.9298Z" fill="#B13232"/>
<path d="M1468.58 43.0002L1478.8 44.2397L1479.42 44.8594L1471.06 43.9298L1468.58 43.0002Z" fill="#8B2929"/>
<path d="M1475.08 47.0285L1473.54 47.6482L1483.76 49.1975L1482.52 47.9581L1475.08 47.0285Z" fill="#8B2929"/>
<path d="M1489.03 31.8453V29.9861L1494.3 34.9439H1492.44L1489.03 31.8453Z" fill="#702B2B"/>
<path d="M1485.62 41.451L1489.03 31.8453V29.9861L1485 41.1411L1485.62 41.451Z" fill="#892A2A"/>
<path fill-rule="evenodd" clip-rule="evenodd" d="M1481.58 42.884L1488.31 23.2194L1469.62 21L1463 40.5154L1481.58 42.884ZM1478.86 38.0824L1482.57 27.2264L1472.25 26.0011L1468.6 36.7748L1478.86 38.0824Z" fill="url(#paint1_linear_223_2)"/>
<path fill-rule="evenodd" clip-rule="evenodd" d="M1491.34 51.9864L1481.58 42.8841L1488.31 23.2195L1497.87 32.0756L1491.34 51.9864ZM1490.69 46.0039L1485.26 40.9403L1489 30.001L1494.32 34.9276L1490.69 46.0039Z" fill="#992B2B"/>
<path fill-rule="evenodd" clip-rule="evenodd" d="M1472.54 49.2726L1463 40.5154L1481.58 42.8839L1491.34 51.9862L1472.54 49.2726ZM1473.83 47.7029L1468.73 43.0272L1478.65 44.2918L1483.87 49.1517L1473.83 47.7029Z" fill="url(#paint2_linear_223_2)"/>
</g>
<g opacity="0.7" filter="url(#filter1_f_223_2)">
<path d="M1429.03 121.36L1421.36 120.507L1431.59 90.6492L1436.71 97.4738L1429.03 121.36Z" fill="#6D2626"/>
<path d="M1459.74 94.0615C1450.64 92.924 1432.27 90.6492 1431.59 90.6492L1436.71 97.4738L1458.04 100.033L1459.74 94.0615Z" fill="#992B2B"/>
<path d="M1478.51 142.687L1482.78 146.952L1492.16 115.388H1487.04L1478.51 142.687Z" fill="#892A2A"/>
<path d="M1428.18 140.128L1421.36 137.568L1435.86 150.364L1439.27 148.658L1428.18 140.128Z" fill="#B13232"/>
<path d="M1421.36 137.568L1449.51 140.981L1451.21 142.687L1428.18 140.128L1421.36 137.568Z" fill="#8B2929"/>
<path d="M1439.27 148.658L1435 150.365L1463.16 154.63L1459.74 151.218L1439.27 148.658Z" fill="#8B2929"/>
<path d="M1477.66 106.858V101.739L1492.16 115.388H1487.04L1477.66 106.858Z" fill="#702B2B"/>
<path d="M1468.27 133.303L1477.66 106.858V101.739L1466.57 132.45L1468.27 133.303Z" fill="#892A2A"/>
<path fill-rule="evenodd" clip-rule="evenodd" d="M1457.15 137.248L1475.68 83.1102L1424.22 77L1406 130.727L1457.15 137.248ZM1449.66 124.029L1459.89 94.1417L1431.48 90.7685L1421.42 120.429L1449.66 124.029Z" fill="url(#paint3_linear_223_2)"/>
<path fill-rule="evenodd" clip-rule="evenodd" d="M1484.02 162.308L1457.15 137.248L1475.68 83.1104L1502 107.492L1484.02 162.308ZM1482.23 145.837L1467.28 131.897L1477.59 101.78L1492.23 115.344L1482.23 145.837Z" fill="#992B2B"/>
<path fill-rule="evenodd" clip-rule="evenodd" d="M1432.26 154.836L1406 130.727L1457.15 137.248L1484.02 162.307L1432.26 154.836ZM1435.81 150.515L1421.79 137.643L1449.1 141.124L1463.44 154.504L1435.81 150.515Z" fill="url(#paint4_linear_223_2)"/>
</g>
<g filter="url(#filter2_d_223_2)">
<path d="M67.5 418L63 417.5L69 400L72 404L67.5 418Z" fill="#6D2626"/>
<path d="M85.5 402C80.1667 401.333 69.4 400 69 400L72 404L84.5 405.5L85.5 402Z" fill="#992B2B"/>
<path d="M96.5 430.5L99 433L104.5 414.5H101.5L96.5 430.5Z" fill="#892A2A"/>
<path d="M67 429L63 427.5L71.5 435L73.5 434L67 429Z" fill="#B13232"/>
<path d="M63 427.5L79.5 429.5L80.5 430.5L67 429L63 427.5Z" fill="#8B2929"/>
<path d="M73.5 434L71 435L87.5 437.5L85.5 435.5L73.5 434Z" fill="#8B2929"/>
<path d="M96 409.5V406.5L104.5 414.5H101.5L96 409.5Z" fill="#702B2B"/>
<path d="M90.5 425L96 409.5V406.5L89.5 424.5L90.5 425Z" fill="#892A2A"/>
<path fill-rule="evenodd" clip-rule="evenodd" d="M83.9774 427.312L94.8381 395.581L64.6796 392L54 423.49L83.9774 427.312ZM79.5872 419.564L85.5829 402.047L68.9337 400.07L63.0379 417.455L79.5872 419.564Z" fill="url(#paint5_linear_223_2)"/>
<path fill-rule="evenodd" clip-rule="evenodd" d="M99.7282 442L83.9775 427.312L94.8382 395.581L110.267 409.872L99.7282 442ZM98.6804 432.347L89.9184 424.176L95.9602 406.524L104.543 414.474L98.6804 432.347Z" fill="#992B2B"/>
<path fill-rule="evenodd" clip-rule="evenodd" d="M69.3936 437.621L54 423.49L83.9774 427.312L99.728 442L69.3936 437.621ZM71.4727 435.088L63.2537 427.544L79.2593 429.584L87.6689 437.426L71.4727 435.088Z" fill="url(#paint6_linear_223_2)"/>
</g>
<defs>
<filter id="filter0_d_223_2" x="1412" y="0" width="136.87" height="132.986" filterUnits="userSpaceOnUse" color-interpolation-filters="sRGB">
<feFlood flood-opacity="0" result="BackgroundImageFix"/>
<feColorMatrix in="SourceAlpha" type="matrix" values="0 0 0 0 0 0 0 0 0 0 0 0 0 0 0 0 0 0 127 0" result="hardAlpha"/>
<feOffset dy="30"/>
<feGaussianBlur stdDeviation="25.5"/>
<feColorMatrix type="matrix" values="0 0 0 0 0.980392 0 0 0 0 0.278431 0 0 0 0 0.278431 0 0 0 0.26 0"/>
<feBlend mode="normal" in2="BackgroundImageFix" result="effect1_dropShadow_223_2"/>
<feBlend mode="normal" in="SourceGraphic" in2="effect1_dropShadow_223_2" result="shape"/>
</filter>
<filter id="filter1_f_223_2" x="1391" y="62" width="126" height="115.308" filterUnits="userSpaceOnUse" color-interpolation-filters="sRGB">
<feFlood flood-opacity="0" result="BackgroundImageFix"/>
<feBlend mode="normal" in="SourceGraphic" in2="BackgroundImageFix" result="shape"/>
<feGaussianBlur stdDeviation="7.5" result="effect1_foregroundBlur_223_2"/>
</filter>
<filter id="filter2_d_223_2" x="3" y="371" width="158.267" height="152" filterUnits="userSpaceOnUse" color-interpolation-filters="sRGB">
<feFlood flood-opacity="0" result="BackgroundImageFix"/>
<feColorMatrix in="SourceAlpha" type="matrix" values="0 0 0 0 0 0 0 0 0 0 0 0 0 0 0 0 0 0 127 0" result="hardAlpha"/>
<feOffset dy="30"/>
<feGaussianBlur stdDeviation="25.5"/>
<feColorMatrix type="matrix" values="0 0 0 0 0.980392 0 0 0 0 0.278431 0 0 0 0 0.278431 0 0 0 0.38 0"/>
<feBlend mode="normal" in2="BackgroundImageFix" result="effect1_dropShadow_223_2"/>
<feBlend mode="normal" in="SourceGraphic" in2="effect1_dropShadow_223_2" result="shape"/>
</filter>
<linearGradient id="paint0_linear_223_2" x1="752" y1="36" x2="752" y2="662" gradientUnits="userSpaceOnUse">
<stop stop-color="#F4F4F4"/>
<stop offset="1" stop-color="#E9E9E9"/>
</linearGradient>
<linearGradient id="paint1_linear_223_2" x1="1475.65" y1="21" x2="1475.65" y2="42.884" gradientUnits="userSpaceOnUse">
<stop stop-color="#FB4747"/>
<stop offset="1" stop-color="#CF3535"/>
</linearGradient>
<linearGradient id="paint2_linear_223_2" x1="1462.57" y1="44.7229" x2="1491.8" y2="47.7917" gradientUnits="userSpaceOnUse">
<stop stop-color="#FA4747"/>
<stop offset="1" stop-color="#CF3535"/>
</linearGradient>
<linearGradient id="paint3_linear_223_2" x1="1440.84" y1="77" x2="1440.84" y2="137.248" gradientUnits="userSpaceOnUse">
<stop stop-color="#FB4747"/>
<stop offset="1" stop-color="#CF3535"/>
</linearGradient>
<linearGradient id="paint4_linear_223_2" x1="1404.81" y1="142.311" x2="1485.29" y2="150.759" gradientUnits="userSpaceOnUse">
<stop stop-color="#FA4747"/>
<stop offset="1" stop-color="#CF3535"/>
</linearGradient>
<linearGradient id="paint5_linear_223_2" x1="74.4191" y1="392" x2="74.4191" y2="427.312" gradientUnits="userSpaceOnUse">
<stop stop-color="#FB4747"/>
<stop offset="1" stop-color="#CF3535"/>
</linearGradient>
<linearGradient id="paint6_linear_223_2" x1="53.3008" y1="430.28" x2="100.474" y2="435.231" gradientUnits="userSpaceOnUse">
<stop stop-color="#FA4747"/>
<stop offset="1" stop-color="#CF3535"/>
</linearGradient>
</defs>
</svg>
