<svg width="53" height="52" viewBox="0 0 53 52" fill="none" xmlns="http://www.w3.org/2000/svg">
<path d="M51.9182 23.6565L48.2193 21.521C47.8566 21.3116 47.3929 21.4358 47.1836 21.7985C46.9742 22.1611 47.0984 22.6248 47.4611 22.8342L51.16 24.9697C51.5577 25.2481 51.4759 25.7346 51.0084 25.8674L49.8417 26.0904C46.832 26.6656 44.0424 28.0588 41.7745 30.1195L40.6428 31.1478C40.3319 31.4656 39.8508 31.5737 39.4522 31.3371L20.0011 20.1068C19.6385 19.8975 19.1747 20.0217 18.9654 20.3843C18.756 20.7469 18.8803 21.2106 19.2429 21.42L38.6941 32.6501C38.9545 32.8005 39.233 32.8979 39.5162 32.9462L36.6006 37.9962C35.8342 39.3236 34.1307 39.7803 32.8032 39.0136L25.2062 34.6275C25.2058 34.6273 25.2054 34.6271 25.205 34.6269L6.88508 24.0497C5.55764 23.2833 5.1012 21.5798 5.86761 20.2523L8.90928 14.984C9.17243 15.442 9.55196 15.8249 10.0215 16.096L16.2556 19.6952C16.6181 19.9043 17.0818 19.7803 17.2912 19.4177C17.5006 19.0551 17.3764 18.5915 17.0137 18.3821L10.7796 14.7828C10.4281 14.5799 10.1768 14.2522 10.0718 13.8603C9.96675 13.4686 10.0206 13.0595 10.2232 12.7082L13.5344 6.97293C14.3714 5.45303 16.4582 4.89303 17.943 5.79174L44.5523 21.1546C44.9085 21.362 45.3773 21.243 45.5879 20.8771C45.7973 20.5145 45.6731 20.0508 45.3104 19.8414L18.701 4.47866C17.6037 3.84507 16.3254 3.6768 15.1015 4.00476C13.8777 4.33272 12.8547 5.11763 12.2212 6.21489L4.55443 19.4942C3.36993 21.5457 4.07536 24.1784 6.12694 25.3629L14.5369 30.2184V34.3301C14.5369 36.1535 15.4162 37.7751 16.773 38.7938L15.1725 41.8496C14.7606 41.702 14.3171 41.6211 13.855 41.6211C11.9123 41.6211 10.2961 43.0425 9.98949 44.8997H6.25294C5.83599 42.5076 3.89407 40.6115 1.41127 40.3217C1.05313 40.2795 0.693129 40.3932 0.423774 40.633C0.154522 40.8727 0 41.2167 0 41.5772V50.1482C0 50.5087 0.154419 50.8527 0.423774 51.0924C0.692922 51.3324 1.05582 51.4459 1.41117 51.4038C4.03443 51.0975 6.05449 48.9986 6.30937 46.4158H10.0363C10.4355 48.156 11.9955 49.4583 13.8549 49.4583C14.1591 49.4583 14.4621 49.4233 14.7555 49.354C15.163 49.258 15.4155 48.8496 15.3194 48.4422C15.2233 48.0345 14.8149 47.7819 14.4076 47.8783C14.2281 47.9206 14.0421 47.942 13.8549 47.942C12.5303 47.942 11.4525 46.8643 11.4525 45.5397C11.4525 44.215 12.5303 43.1373 13.8549 43.1373C15.1796 43.1373 16.2572 44.215 16.2572 45.5397C16.2572 45.7441 16.2317 45.9468 16.1812 46.142C16.0766 46.5475 16.3205 46.9608 16.7258 47.0656C17.1313 47.17 17.5448 46.9264 17.6495 46.521C17.7317 46.202 17.7735 45.8719 17.7735 45.5398C17.7735 44.3859 17.2719 43.3472 16.4756 42.6294L18.0987 39.5302C18.7247 39.774 19.4045 39.9091 20.1157 39.9091C22.4117 39.9091 24.4472 38.4924 25.2868 36.4249L32.0449 40.3267C33.0408 40.9025 34.2041 41.0517 35.305 40.756C36.1364 40.5331 36.8654 40.0775 37.4199 39.4443L40.6068 41.2842C41.0039 41.5136 41.4382 41.6224 41.8668 41.6224C42.7372 41.6224 43.5846 41.1729 44.0539 40.3699C46.3103 41.5674 49.3187 40.6686 50.5521 38.4357C51.8663 36.1594 51.1539 33.2603 48.9789 31.8404C49.3661 31.2302 49.4952 30.4966 49.3038 29.7965C49.129 29.1441 48.7105 28.5987 48.1257 28.2612L47.9593 28.1651C48.6636 27.9181 49.3872 27.7208 50.1261 27.5795C51.2917 27.4284 52.7095 27.1129 52.891 25.7237C53.032 24.8905 52.65 24.079 51.9182 23.6565ZM1.51628 49.8551V41.8704C3.41892 42.2279 4.82089 43.8967 4.82089 45.8627C4.82089 47.8289 3.41903 49.4976 1.51628 49.8551ZM19.419 33.037L21.2741 34.108C21.2067 34.6876 20.7133 35.1392 20.1159 35.1392C19.4726 35.1392 18.9492 34.6158 18.9492 33.9726C18.9492 33.6008 19.1279 33.2548 19.419 33.037ZM20.1159 38.3929C17.8757 38.3929 16.0532 36.5702 16.0532 34.3301V31.0938L18.0599 32.2524C17.6637 32.7269 17.4329 33.3329 17.4329 33.9727C17.4329 35.4521 18.6364 36.6556 20.1159 36.6556C21.2717 36.6556 22.2591 35.921 22.6358 34.8943L23.9572 35.6571C23.4 37.2699 21.8611 38.3929 20.1159 38.3929ZM49.2391 37.6775C48.7828 38.4679 48.0459 39.0333 47.1645 39.2696C46.3715 39.482 45.547 39.4042 44.8141 39.0546L48.2191 33.157C49.6705 34.1563 50.1351 36.1256 49.2391 37.6775ZM47.3678 29.5742C47.8447 29.8367 48.0201 30.4914 47.7382 30.9571L42.7479 39.6005C42.4687 40.0839 41.8483 40.2501 41.3651 39.9711L38.2497 38.1724L41.6523 32.2789C43.0087 30.9958 44.5226 29.7048 46.2074 28.9043L47.3678 29.5742Z" fill="#CF3535"/>
<path d="M34.2517 23.4752C34.8448 23.4752 35.3256 22.9944 35.3256 22.4013C35.3256 21.8082 34.8448 21.3274 34.2517 21.3274C33.6586 21.3274 33.1778 21.8082 33.1778 22.4013C33.1778 22.9944 33.6586 23.4752 34.2517 23.4752Z" fill="#CF3535"/>
<path d="M37.6885 25.3705C38.2816 25.3705 38.7624 24.8897 38.7624 24.2966C38.7624 23.7035 38.2816 23.2227 37.6885 23.2227C37.0954 23.2227 36.6146 23.7035 36.6146 24.2966C36.6146 24.8897 37.0954 25.3705 37.6885 25.3705Z" fill="#CF3535"/>
<path d="M28.227 6.88487C28.82 6.88487 29.3009 6.40404 29.3009 5.81097C29.3009 5.21789 28.82 4.73706 28.227 4.73706C27.6339 4.73706 27.153 5.21789 27.153 5.81097C27.153 6.40415 27.6339 6.88487 28.227 6.88487Z" fill="#CF3535"/>
<path d="M34.428 11.5225C34.7589 11.7735 35.2361 11.7112 35.4901 11.3755C37.958 8.11513 37.958 3.56101 35.4901 0.300533C35.2375 -0.033215 34.7619 -0.0989516 34.428 0.153556C34.0942 0.406269 34.0284 0.881826 34.2811 1.21568C36.3411 3.93734 36.3411 7.7388 34.2811 10.4604C34.0284 10.7942 34.0941 11.2698 34.428 11.5225Z" fill="#CF3535"/>
<path d="M30.8511 9.29994C31.1581 9.58346 31.6379 9.56537 31.9224 9.25705C33.6921 7.33983 33.6921 4.33621 31.9224 2.4191C31.6385 2.1116 31.1588 2.09238 30.8511 2.3762C30.5434 2.66023 30.5243 3.13993 30.8082 3.44752C32.0456 4.78799 32.0456 6.88815 30.8082 8.22862C30.5242 8.53622 30.5434 9.01591 30.8511 9.29994Z" fill="#CF3535"/>
</svg>
