<svg width="35" height="35" viewBox="0 0 35 35" fill="none" xmlns="http://www.w3.org/2000/svg">
<g clip-path="url(#clip0_1_686)">
<path d="M32.0833 0.583252H7.58333C5.97319 0.585246 4.66866 1.88977 4.66667 3.49992V26.2499H0.583333C0.26119 26.2499 0 26.5111 0 26.8333V27.9999C0.00199382 29.6101 1.30652 30.9146 2.91667 30.9166H21.014V33.8333C21.014 34.0543 21.1387 34.2562 21.3364 34.3551C21.5341 34.4539 21.7705 34.4325 21.9473 34.2998L23.9306 32.8124L25.9139 34.2998C26.0147 34.3759 26.1378 34.4169 26.264 34.4166C26.3545 34.4174 26.444 34.3975 26.5254 34.3582C26.724 34.2588 26.8487 34.0551 26.8473 33.8333V30.9166H27.4167C29.0268 30.9146 30.3313 29.6101 30.3333 27.9999V5.24992H34.4167C34.7388 5.24992 35 4.98873 35 4.66659V3.49992C34.998 1.88977 33.6935 0.585246 32.0833 0.583252ZM21.014 29.7499H2.91667C1.95024 29.7499 1.16667 28.9664 1.16667 27.9999V27.4166H21.014V29.7499ZM25.6806 32.6666L24.2807 31.6167C24.0733 31.4609 23.7882 31.4609 23.5806 31.6167L22.1806 32.6666V26.1514C22.2934 26.1602 22.4068 26.1582 22.519 26.1448C22.8557 26.5792 23.3743 26.8333 23.9238 26.8333C24.4732 26.8333 24.9916 26.5792 25.3283 26.1448C25.4445 26.1588 25.5618 26.1611 25.6783 26.1514L25.6806 32.6666ZM26.4309 23.3216C26.2753 23.3768 26.1503 23.4956 26.0874 23.648C26.0241 23.8007 26.0284 23.9727 26.0996 24.122C26.2098 24.3532 26.1631 24.6289 25.9825 24.8107C25.8017 24.9924 25.5262 25.0408 25.2944 24.9317C25.1454 24.8605 24.9731 24.856 24.8204 24.9189C24.6675 24.9821 24.549 25.1072 24.4934 25.263C24.4083 25.5045 24.1798 25.6663 23.9238 25.6663C23.6674 25.6663 23.439 25.5045 23.3538 25.263C23.2986 25.1072 23.1798 24.9821 23.0271 24.9189C22.8742 24.856 22.7019 24.8605 22.5529 24.9317C22.321 25.0408 22.0456 24.9924 21.865 24.8107C21.6842 24.6289 21.6375 24.3532 21.748 24.122C21.8189 23.973 21.8234 23.8007 21.7602 23.6483C21.6973 23.4956 21.5725 23.3771 21.417 23.3216C21.1752 23.2356 21.0134 23.0066 21.0134 22.7499C21.0134 22.4933 21.1752 22.2643 21.417 22.1783C21.5725 22.1227 21.697 22.0042 21.7599 21.8518C21.8232 21.6995 21.8186 21.5274 21.748 21.3785C21.6369 21.1472 21.6836 20.8712 21.8645 20.6892C22.045 20.5074 22.3208 20.4587 22.5529 20.5681C22.7019 20.6393 22.8742 20.6439 23.0271 20.5809C23.1798 20.5177 23.2986 20.3927 23.3538 20.2369C23.439 19.9953 23.6674 19.8335 23.9238 19.8335C24.1798 19.8335 24.4083 19.9953 24.4934 20.2369C24.549 20.3927 24.6675 20.5177 24.8204 20.5809C24.9731 20.6439 25.1454 20.6393 25.2944 20.5681C25.5262 20.459 25.8017 20.5074 25.9825 20.6892C26.1631 20.8709 26.2098 21.1466 26.0996 21.3779C26.0284 21.5271 26.0241 21.6992 26.0874 21.8518C26.1503 22.0042 26.2753 22.123 26.4309 22.1783C26.6721 22.2649 26.8333 22.4936 26.8333 22.7499C26.8333 23.0063 26.6721 23.235 26.4309 23.3216ZM29.705 1.82284C29.672 1.86955 29.6426 1.91911 29.6124 1.9681C29.55 2.06779 29.4942 2.1709 29.4444 2.27714C29.4182 2.33553 29.3937 2.38936 29.3709 2.44633C29.3276 2.56083 29.2911 2.67761 29.2624 2.79639C29.249 2.85079 29.2319 2.9032 29.2216 2.95846C29.1863 3.13704 29.1681 3.3182 29.1667 3.49992V27.9999C29.1667 28.9664 28.3831 29.7499 27.4167 29.7499C27.2221 29.7462 27.0299 29.71 26.8473 29.6425V25.5848C27.2102 25.2032 27.3813 24.6782 27.3141 24.1558C27.7476 23.8183 28.0011 23.2994 28.0011 22.7499C28.0011 22.2005 27.7476 21.6815 27.3141 21.344C27.3831 20.7994 27.1965 20.2534 26.8088 19.8643C26.4212 19.4755 25.8757 19.2875 25.3306 19.355C24.9939 18.9207 24.4755 18.6666 23.9261 18.6666C23.3766 18.6666 22.858 18.9207 22.5213 19.355C21.9764 19.2878 21.4309 19.4758 21.0433 19.8646C20.6559 20.2534 20.4694 20.7994 20.538 21.344C20.1045 21.6815 19.8507 22.2005 19.8507 22.7499C19.8507 23.2994 20.1045 23.8183 20.538 24.1558C20.4691 24.6856 20.6457 25.218 21.0174 25.6019V26.2499H5.83333V3.49992C5.83333 2.53349 6.6169 1.74992 7.58333 1.74992H29.75C29.7338 1.77271 29.7215 1.79891 29.705 1.82284ZM33.8333 4.08325H30.3333V3.49992C30.3333 2.53349 31.1169 1.74992 32.0833 1.74992C33.0498 1.74992 33.8333 2.53349 33.8333 3.49992V4.08325Z" fill="white"/>
<path d="M19.25 5.25H21.5833V6.41667H19.25V5.25Z" fill="white"/>
<path d="M13.4167 5.25H18.0833V6.41667H13.4167V5.25Z" fill="white"/>
<path d="M11.6667 8.16675H23.3334V9.33342H11.6667V8.16675Z" fill="white"/>
<path d="M8.75 11.6667H11.6667V12.8334H8.75V11.6667Z" fill="white"/>
<path d="M8.75 14.5833H15.1667V15.7499H8.75V14.5833Z" fill="white"/>
<path d="M12.8333 11.6667H26.25V12.8334H12.8333V11.6667Z" fill="white"/>
<path d="M16.3334 14.5833H26.25V15.7499H16.3334V14.5833Z" fill="white"/>
<path d="M8.75 17.5H20.4167V18.6667H8.75V17.5Z" fill="white"/>
<path d="M8.75 20.4167H18.6667V21.5834H8.75V20.4167Z" fill="white"/>
</g>
<defs>
<clipPath id="clip0_1_686">
<rect width="35" height="35" fill="white"/>
</clipPath>
</defs>
</svg>
