<svg width="45" height="49" viewBox="0 0 45 49" fill="none" xmlns="http://www.w3.org/2000/svg">
<g clip-path="url(#clip0_1_676)" filter="url(#filter0_d_1_676)">
<path d="M29.3108 17.1215C29.9939 16.4453 30.4179 15.5079 30.4179 14.473C30.4179 12.4176 28.7453 10.7454 26.6895 10.7454C25.1053 10.7454 23.7012 11.7496 23.1769 13.2212C22.9572 13.1807 22.7311 13.1585 22.4998 13.1585C22.2684 13.1585 22.0425 13.1807 21.8226 13.2212C21.2984 11.7495 19.8942 10.7454 18.3101 10.7454C16.2542 10.7454 14.5816 12.4176 14.5816 14.473C14.5816 15.5079 15.0057 16.4453 15.6889 17.1215C14.0501 18.0549 12.9952 19.8226 12.9952 21.745C12.9952 22.0768 13.2641 22.3456 13.5958 22.3456C13.9275 22.3456 14.1964 22.0768 14.1964 21.745C14.1964 20.0471 15.2594 18.5053 16.8438 17.9006C17.2942 18.094 17.7898 18.2015 18.3102 18.2015C18.5393 18.2015 18.7663 18.1794 18.9884 18.1384C19.1783 18.6694 19.485 19.1451 19.8778 19.5342C18.2242 20.4705 17.185 22.2251 17.185 24.1584C17.185 24.4901 17.454 24.759 17.7856 24.759C18.1173 24.759 18.3862 24.4901 18.3862 24.1584C18.3862 22.5013 19.3725 21.0134 20.8988 20.3678C20.9396 20.3505 20.9773 20.3289 21.0121 20.3044C21.4681 20.5037 21.9711 20.615 22.4998 20.615C23.0203 20.615 23.516 20.5074 23.9663 20.314C25.5501 20.9186 26.6133 22.4621 26.6133 24.1584C26.6133 24.4901 26.8822 24.759 27.2139 24.759C27.5456 24.759 27.8145 24.4901 27.8145 24.1584C27.8145 22.2377 26.7593 20.4686 25.1211 19.5348C25.5143 19.1455 25.8212 18.6696 26.0111 18.1384C26.2334 18.1794 26.4602 18.2015 26.6894 18.2015C27.2098 18.2015 27.7054 18.094 28.1556 17.9006C29.7401 18.5053 30.8031 20.047 30.8031 21.745C30.8031 22.0768 31.072 22.3456 31.4037 22.3456C31.7354 22.3456 32.0043 22.0768 32.0043 21.745C32.0045 19.8225 30.9495 18.0549 29.3108 17.1215ZM18.7716 16.8868C18.7716 16.9104 18.773 16.9336 18.7734 16.9571C18.6221 16.9853 18.4672 17.0003 18.3102 17.0003C16.9166 17.0003 15.7829 15.8666 15.7829 14.473C15.7829 13.08 16.9166 11.9465 18.3102 11.9465C19.3853 11.9465 20.3377 12.6287 20.6921 13.6276C19.5478 14.2649 18.7716 15.4867 18.7716 16.8868ZM19.9728 16.8868C19.9728 15.4934 21.1064 14.3597 22.4999 14.3597C23.8933 14.3597 25.0269 15.4933 25.0269 16.8868C25.0269 18.2802 23.8933 19.4138 22.4999 19.4138C21.1064 19.4138 19.9728 18.2801 19.9728 16.8868ZM26.2262 16.9571C26.2266 16.9336 26.228 16.9103 26.228 16.8868C26.228 15.4867 25.4519 14.265 24.3076 13.6277C24.662 12.6288 25.6144 11.9466 26.6895 11.9466C28.083 11.9466 29.2168 13.08 29.2168 14.4731C29.2168 15.8666 28.083 17.0004 26.6895 17.0004C26.5325 17.0003 26.3775 16.9853 26.2262 16.9571Z" fill="white"/>
<path d="M38.0537 25.9564V15.0396C39.5508 14.757 40.6869 13.4402 40.6869 11.8623C40.6869 10.0789 39.2361 8.62815 37.4528 8.62815C36.4727 8.62815 35.5937 9.06698 35.0001 9.75774L25.5519 4.30238C25.6694 3.96773 25.7341 3.60834 25.7341 3.23397C25.7341 1.45078 24.2833 0 22.5 0C20.7167 0 19.2659 1.45078 19.2659 3.23405C19.2659 3.60842 19.3305 3.96773 19.4481 4.30246L9.99983 9.75774C9.40629 9.06698 8.52727 8.62815 7.54718 8.62815C5.76383 8.62815 4.31305 10.0789 4.31305 11.8623C4.31305 13.4402 5.4492 14.757 6.94627 15.0396V25.9564C5.4492 26.2389 4.31305 27.5558 4.31305 29.1337C4.31305 30.9171 5.76383 32.3678 7.54718 32.3678C8.52574 32.3678 9.40348 31.9304 9.99703 31.2415L19.448 36.6979C19.3305 37.0324 19.2659 37.3917 19.2659 37.7659C19.2659 39.5493 20.7167 41.0001 22.5 41.0001C24.2834 41.0001 25.7342 39.5493 25.7342 37.7659C25.7342 37.3917 25.6695 37.0324 25.5521 36.6979L35.003 31.2415C35.5966 31.9305 36.4743 32.3678 37.4529 32.3678C39.2362 32.3678 40.687 30.9171 40.687 29.1337C40.6869 27.5557 39.5507 26.2389 38.0537 25.9564ZM37.4528 9.82933C38.5737 9.82933 39.4857 10.7413 39.4857 11.8623C39.4857 12.9832 38.5737 13.8952 37.4528 13.8952C36.3318 13.8952 35.4198 12.9832 35.4198 11.8623C35.4198 10.7413 36.3318 9.82933 37.4528 9.82933ZM22.5 1.20118C23.621 1.20118 24.533 2.11311 24.533 3.23405C24.533 4.35395 23.6226 5.26525 22.5031 5.26693C22.5021 5.26693 22.5011 5.26677 22.5 5.26677C22.499 5.26677 22.4979 5.26693 22.4969 5.26693C21.3774 5.26525 20.4671 4.35395 20.4671 3.23405C20.4671 2.11311 21.379 1.20118 22.5 1.20118ZM5.51423 11.8623C5.51423 10.7413 6.42624 9.82933 7.54718 9.82933C8.66812 9.82933 9.58014 10.7413 9.58014 11.8623C9.58014 12.9832 8.66812 13.8952 7.54718 13.8952C6.42624 13.8952 5.51423 12.9832 5.51423 11.8623ZM7.54718 31.1666C6.42624 31.1666 5.51423 30.2546 5.51423 29.1336C5.51423 28.0127 6.42624 27.1007 7.54718 27.1007C8.66812 27.1007 9.58014 28.0127 9.58014 29.1336C9.58014 30.2546 8.66812 31.1666 7.54718 31.1666ZM22.5 39.7988C21.3791 39.7988 20.4671 38.8868 20.4671 37.7659C20.4671 36.6449 21.3791 35.7329 22.5 35.7329C23.621 35.7329 24.533 36.6449 24.533 37.7659C24.533 38.8868 23.621 39.7988 22.5 39.7988ZM24.95 35.6584C24.481 35.1138 23.8344 34.727 23.1005 34.5886V32.2748C23.1005 31.943 22.8316 31.6742 22.4999 31.6742C22.1683 31.6742 21.8994 31.943 21.8994 32.2748V34.5886C21.1656 34.727 20.519 35.1138 20.0499 35.6584L10.5991 30.2021C10.7166 29.8674 10.7812 29.5081 10.7812 29.1337C10.7812 28.759 10.7165 28.3993 10.5987 28.0643L12.6031 26.9068C12.8903 26.7409 12.9887 26.3736 12.8228 26.0863C12.657 25.7991 12.2897 25.7008 12.0024 25.8666L9.99623 27.0252C9.52721 26.4811 8.88081 26.0946 8.14737 25.9564V15.0396C8.88105 14.9013 9.52761 14.5146 9.99663 13.9703L12.0055 15.1304C12.1001 15.1851 12.2034 15.211 12.3053 15.211C12.5128 15.211 12.7147 15.1033 12.8259 14.9107C12.9918 14.6235 12.8934 14.2561 12.6061 14.0902L10.5988 12.931C10.7164 12.5962 10.7811 12.2367 10.7811 11.8623C10.7811 11.4894 10.7169 11.1315 10.6003 10.798L20.0499 5.3418C20.5189 5.88618 21.1654 6.27296 21.8991 6.41133V8.72536C21.8991 9.05713 22.168 9.32595 22.4997 9.32595C22.8314 9.32595 23.1003 9.05713 23.1003 8.72536V6.41133C23.834 6.27296 24.4805 5.88618 24.9495 5.3418L34.3991 10.798C34.2825 11.1315 34.2183 11.4894 34.2183 11.8623C34.2183 12.2367 34.283 12.5962 34.4006 12.931L32.3932 14.0902C32.106 14.2561 32.0076 14.6235 32.1735 14.9107C32.2847 15.1033 32.4866 15.211 32.6941 15.211C32.796 15.211 32.8993 15.1851 32.9939 15.1304L35.0028 13.9703C35.4719 14.5146 36.1184 14.9013 36.852 15.0396V25.9564C36.1186 26.0946 35.4723 26.4811 35.0032 27.0252L32.997 25.8666C32.7098 25.701 32.3425 25.7991 32.1766 26.0863C32.0106 26.3736 32.109 26.7409 32.3963 26.9068L34.4007 28.0643C34.2829 28.3993 34.2182 28.759 34.2182 29.1337C34.2182 29.5081 34.2828 29.8675 34.4003 30.2021L24.95 35.6584ZM37.4528 31.1666C36.3318 31.1666 35.4198 30.2546 35.4198 29.1336C35.4198 28.0127 36.3318 27.1007 37.4528 27.1007C38.5737 27.1007 39.4857 28.0127 39.4857 29.1336C39.4857 30.2546 38.5737 31.1666 37.4528 31.1666Z" fill="white"/>
<path d="M27.5303 26.7053H25.743C25.4113 26.7053 25.1424 26.9741 25.1424 27.3059C25.1424 27.6377 25.4113 27.9065 25.743 27.9065H27.5303C27.862 27.9065 28.1309 27.6377 28.1309 27.3059C28.1309 26.9741 27.862 26.7053 27.5303 26.7053Z" fill="white"/>
<path d="M27.5303 29.0576H17.4695C17.1378 29.0576 16.8689 29.3264 16.8689 29.6582C16.8689 29.99 17.1378 30.2588 17.4695 30.2588H27.5304C27.8621 30.2588 28.131 29.99 28.131 29.6582C28.131 29.3264 27.862 29.0576 27.5303 29.0576Z" fill="white"/>
<path d="M17.4695 27.9065H17.4778C17.8095 27.9065 18.0784 27.6377 18.0784 27.3059C18.0784 26.9741 17.8095 26.7053 17.4778 26.7053H17.4695C17.1378 26.7053 16.8689 26.9741 16.8689 27.3059C16.8689 27.6377 17.1378 27.9065 17.4695 27.9065Z" fill="white"/>
<path d="M19.5583 27.9065C19.8899 27.9065 20.1588 27.6377 20.1588 27.3059C20.1588 26.9741 19.8899 26.7053 19.5583 26.7053H19.5499C19.2182 26.7053 18.9493 26.9741 18.9493 27.3059C18.9493 27.6377 19.2182 27.9065 19.5499 27.9065H19.5583Z" fill="white"/>
<path d="M21.6384 27.9065C21.9701 27.9065 22.239 27.6377 22.239 27.3059C22.239 26.9741 21.9701 26.7053 21.6384 26.7053H21.6301C21.2984 26.7053 21.0295 26.9741 21.0295 27.3059C21.0295 27.6377 21.2984 27.9065 21.6301 27.9065H21.6384Z" fill="white"/>
</g>
<defs>
<filter id="filter0_d_1_676" x="-2" y="0" width="49" height="49" filterUnits="userSpaceOnUse" color-interpolation-filters="sRGB">
<feFlood flood-opacity="0" result="BackgroundImageFix"/>
<feColorMatrix in="SourceAlpha" type="matrix" values="0 0 0 0 0 0 0 0 0 0 0 0 0 0 0 0 0 0 127 0" result="hardAlpha"/>
<feOffset dy="4"/>
<feGaussianBlur stdDeviation="2"/>
<feComposite in2="hardAlpha" operator="out"/>
<feColorMatrix type="matrix" values="0 0 0 0 0 0 0 0 0 0 0 0 0 0 0 0 0 0 0.25 0"/>
<feBlend mode="normal" in2="BackgroundImageFix" result="effect1_dropShadow_1_676"/>
<feBlend mode="normal" in="SourceGraphic" in2="effect1_dropShadow_1_676" result="shape"/>
</filter>
<clipPath id="clip0_1_676">
<rect width="41" height="41" fill="white" transform="translate(2)"/>
</clipPath>
</defs>
</svg>
