<svg width="31" height="31" viewBox="0 0 31 31" fill="none" xmlns="http://www.w3.org/2000/svg">
<g clip-path="url(#clip0_1_706)">
<path d="M18.5279 19.5354C18.9115 19.5354 19.2704 19.3842 19.5383 19.1095L21.9185 16.6693C22.4617 16.1122 22.4504 15.2171 21.8934 14.6738C21.3363 14.1306 20.441 14.1419 19.8977 14.6989L18.5015 16.1303L18.2568 15.8925C17.699 15.3502 16.8037 15.3627 16.2612 15.9205C15.7188 16.4783 15.7313 17.3734 16.2892 17.9159L17.5441 19.136C17.809 19.3936 18.1584 19.5354 18.5279 19.5354ZM16.9137 16.5549C17.1065 16.3567 17.4246 16.3525 17.6225 16.545L18.1928 17.0996C18.3727 17.2746 18.6605 17.2707 18.8358 17.091L20.5493 15.3343C20.7423 15.1364 21.0602 15.1326 21.258 15.3254C21.4558 15.5183 21.4598 15.8362 21.2669 16.034L18.8868 18.4742C18.7028 18.6709 18.3678 18.6751 18.1786 18.4837L16.9237 17.2635C16.7256 17.0709 16.7211 16.7529 16.9137 16.5549Z" fill="white"/>
<path d="M15.0104 19.8451C14.859 19.6445 14.5738 19.6045 14.373 19.7559C14.1724 19.9073 14.1325 20.1926 14.2838 20.3932C14.4495 20.6128 14.6329 20.8233 14.8286 21.019C15.9474 22.1378 17.435 22.7538 19.0173 22.7538C20.5995 22.7538 22.0871 22.1378 23.2059 21.019C24.3248 19.9004 24.9409 18.413 24.9409 16.8309C24.9409 15.2489 24.3247 13.7615 23.2059 12.6429C20.8962 10.3335 17.1383 10.3336 14.8286 12.6429C13.2539 14.2173 12.6967 16.514 13.3744 18.6368C13.4508 18.8762 13.7071 19.0081 13.9463 18.9319C14.1857 18.8554 14.3179 18.5994 14.2414 18.3601C13.6677 16.5631 14.1393 14.619 15.4722 13.2863C17.4269 11.3318 20.6077 11.3318 22.5623 13.2863C23.5093 14.2332 24.0309 15.492 24.0309 16.831C24.0309 18.17 23.5093 19.4288 22.5623 20.3757C21.6155 21.3224 20.3564 21.8439 19.0173 21.8439C17.6782 21.8439 16.4191 21.3225 15.4721 20.3757C15.3061 20.2095 15.1507 20.0311 15.0104 19.8451Z" fill="white"/>
<path d="M30.373 25.1434L27.5022 22.2729C27.3244 22.0952 27.0363 22.0952 26.8586 22.2729L26.841 22.2905L25.7362 21.1858C26.4789 20.0409 26.9213 18.718 27.0084 17.3374C27.0242 17.0866 26.8337 16.8705 26.5829 16.8546C26.3323 16.8394 26.116 17.0294 26.1001 17.2801C25.9914 19.0038 25.2581 20.6264 24.0353 21.8491C22.6534 23.2309 20.8386 23.9226 19.0233 23.9243C19.021 23.9242 19.0188 23.9239 19.0164 23.9239H18.9803C17.1748 23.9149 15.372 23.2234 13.9975 21.8491C12.6569 20.5087 11.9186 18.7265 11.9186 16.8308C11.9186 14.9352 12.6569 13.153 13.9975 11.8126C16.7649 9.04546 21.2679 9.04546 24.0353 11.8126C25.0661 12.8432 25.7463 14.1432 26.0024 15.5722C26.0468 15.8195 26.2834 15.9838 26.5306 15.9398C26.778 15.8954 26.9426 15.659 26.8983 15.4116C26.6091 13.7988 25.8417 12.3318 24.6789 11.1691C24.1027 10.593 23.4597 10.1236 22.7747 9.7601V6.09301C22.7744 5.97325 22.726 5.85603 22.6415 5.77127L17.0027 0.133264C16.9179 0.0488613 16.8008 0.000302734 16.6809 0H1.36421C0.611492 0 -0.000939857 0.612311 -0.000939857 1.36497V5.18929C-0.000939857 5.44056 0.20274 5.6443 0.45413 5.6443C0.70546 5.6443 0.909201 5.44062 0.909201 5.18929V1.36497C0.909201 1.11406 1.1133 0.909959 1.36427 0.909959H16.226V5.18305C16.226 5.93571 16.8384 6.54802 17.5911 6.54802H21.8648V9.34801C20.9769 9.01162 20.0409 8.83881 19.1033 8.8287C19.0988 8.8281 19.0945 8.82719 19.0898 8.82719H8.93003C8.6787 8.82719 8.47496 9.03093 8.47496 9.2822C8.47496 9.53347 8.6787 9.73721 8.93003 9.73721H15.3011C14.652 10.0766 14.0401 10.5111 13.486 11.0405H8.93003C8.6787 11.0405 8.47496 11.2442 8.47496 11.4955C8.47496 11.7468 8.6787 11.9505 8.93003 11.9505H12.667C11.9242 12.9127 11.4166 14.0208 11.1736 15.2037H8.93009C8.67876 15.2037 8.47502 15.4074 8.47502 15.6587C8.47502 15.91 8.67876 16.1137 8.93009 16.1137H11.0407C11.0197 16.3509 11.0087 16.59 11.0087 16.8309C11.0087 17.0286 11.0159 17.2251 11.03 17.4202H8.93015C8.67882 17.4202 8.47508 17.624 8.47508 17.8753C8.47508 18.1265 8.67882 18.3303 8.93015 18.3303H11.1486C11.3807 19.5618 11.8981 20.7159 12.6684 21.713H8.93015C8.67882 21.713 8.47508 21.9167 8.47508 22.168C8.47508 22.4194 8.67882 22.623 8.93015 22.623H13.4878C14.0412 23.1514 14.6521 23.5852 15.3 23.9242H8.92991C8.67858 23.9242 8.47484 24.1279 8.47484 24.3792C8.47484 24.6305 8.67858 24.8342 8.92991 24.8342H19.0164C19.9829 24.8341 20.9494 24.6605 21.8647 24.3137V29.6353C21.8647 29.8861 21.6606 30.0903 21.4096 30.0903H1.36421C1.1133 30.0903 0.90914 29.8862 0.90914 29.6353V7.00951C0.90914 6.75824 0.7054 6.5545 0.45407 6.5545C0.20274 6.5545 -0.0010004 6.75818 -0.0010004 7.00951V29.6353C-0.000939857 30.3877 0.611492 31 1.36421 31H21.4096C22.1624 31 22.7748 30.3877 22.7748 29.635V23.9014C22.9779 23.7936 23.1772 23.6764 23.3722 23.55L24.4768 24.6544C24.2856 24.8213 24.2754 25.1392 24.4591 25.3154L27.33 28.186C28.1309 29.0206 29.5722 29.0205 30.3729 28.186C31.2078 27.3852 31.2077 25.9441 30.373 25.1434ZM17.5911 5.63806C17.3402 5.63806 17.136 5.43396 17.136 5.18305V1.55345L21.2212 5.63806H17.5911ZM24.1145 23.0053C24.3087 22.8448 24.4972 22.6741 24.6789 22.4926C24.8594 22.312 25.0303 22.1235 25.1916 21.9283L26.1974 22.9339L25.1203 24.0108L24.1145 23.0053ZM29.7295 27.5425C29.2674 28.0241 28.4357 28.024 27.9736 27.5425L25.4244 24.9937L27.1804 23.238L29.7295 25.7868C30.2111 26.2489 30.2112 27.0804 29.7295 27.5425Z" fill="white"/>
<path d="M4.1295 12.4002H6.12029C6.68155 12.4002 7.1382 11.9437 7.1382 11.3825V9.392C7.1382 8.83079 6.68161 8.37427 6.12029 8.37427H4.1295C3.5683 8.37427 3.11165 8.83079 3.11165 9.392V11.3825C3.11165 11.9437 3.5683 12.4002 4.1295 12.4002ZM4.02179 9.392C4.02179 9.3326 4.07017 9.28429 4.1295 9.28429H6.12029C6.17974 9.28429 6.22806 9.3326 6.22806 9.392V11.3825C6.22806 11.4419 6.17968 11.4903 6.12029 11.4903H4.1295C4.07011 11.4903 4.02179 11.4419 4.02179 11.3825V9.392Z" fill="white"/>
<path d="M3.11165 17.7621C3.11165 18.3233 3.56823 18.7798 4.1295 18.7798H6.12029C6.68155 18.7798 7.1382 18.3233 7.1382 17.7621V15.7716C7.1382 15.2104 6.68161 14.7539 6.12029 14.7539H4.1295C3.5683 14.7539 3.11165 15.2104 3.11165 15.7716V17.7621ZM4.02179 15.7716C4.02179 15.7122 4.07017 15.6639 4.1295 15.6639H6.12029C6.17974 15.6639 6.22806 15.7122 6.22806 15.7716V17.7621C6.22806 17.8215 6.17968 17.8698 6.12029 17.8698H4.1295C4.07011 17.8698 4.02179 17.8215 4.02179 17.7621V15.7716Z" fill="white"/>
<path d="M3.11165 24.2715C3.11165 24.8326 3.56823 25.2891 4.1295 25.2891H6.12029C6.68155 25.2891 7.1382 24.8326 7.1382 24.2715V22.2809C7.1382 21.7197 6.68161 21.2632 6.12029 21.2632H4.1295C3.5683 21.2632 3.11165 21.7197 3.11165 22.2809V24.2715ZM4.02179 22.2809C4.02179 22.2215 4.07017 22.1732 4.1295 22.1732H6.12029C6.17974 22.1732 6.22806 22.2215 6.22806 22.2809V24.2715C6.22806 24.3308 6.17968 24.3792 6.12029 24.3792H4.1295C4.07011 24.3792 4.02179 24.3308 4.02179 24.2715V22.2809Z" fill="white"/>
</g>
<defs>
<clipPath id="clip0_1_706">
<rect width="31" height="31" fill="white"/>
</clipPath>
</defs>
</svg>
