<svg width="38" height="38" viewBox="0 0 38 38" fill="none" xmlns="http://www.w3.org/2000/svg">
<path d="M35.3399 17.1715L34.3558 13.2353C34.6248 13.1782 34.8267 12.9395 34.8267 12.6535V12.0189C34.8267 10.6409 33.7056 9.51993 32.3278 9.51993H27.8455V8.21086C27.8455 7.53279 27.2939 6.9812 26.6159 6.9812H3.76823C3.09017 6.9812 2.53858 7.53279 2.53858 8.21086V19C2.53858 19.3286 2.80495 19.595 3.13359 19.595C3.46216 19.595 3.7286 19.3287 3.7286 19V8.21086C3.7286 8.18896 3.74634 8.17122 3.76823 8.17122H26.6158C26.6377 8.17122 26.6554 8.18896 26.6554 8.21086V19.0002C26.6554 19.3287 26.9218 19.5952 27.2505 19.5952C27.579 19.5952 27.8455 19.3288 27.8455 19.0002V18.3257H34.8643C34.8649 18.3257 34.8653 18.3258 34.8658 18.3258C34.8664 18.3258 34.8669 18.3258 34.8675 18.3258C35.7311 18.3264 36.4645 18.8932 36.7164 19.6744H34.8663C34.5377 19.6744 34.2713 19.9408 34.2713 20.2694V21.5387C34.2713 22.5667 35.1075 23.403 36.1356 23.403H36.8099V26.0209H35.2541C34.7431 24.5452 33.3402 23.4823 31.693 23.4823C30.0457 23.4823 28.6428 24.5452 28.1318 26.0209H27.8453V21.5386C27.8453 21.21 27.5789 20.9436 27.2503 20.9436C26.9217 20.9436 26.6553 21.21 26.6553 21.5386V26.0208H14.3106C13.7996 24.5451 12.3968 23.4821 10.7495 23.4821C9.10219 23.4821 7.6993 24.5451 7.18831 26.0208H3.76823C3.74634 26.0208 3.7286 26.003 3.7286 25.9811V24.6721H6.30689C6.63545 24.6721 6.9019 24.4058 6.9019 24.0771C6.9019 23.7485 6.63553 23.4821 6.30689 23.4821H0.595012C0.266445 23.4821 0 23.7485 0 24.0771C0 24.4058 0.266371 24.6721 0.595012 24.6721H2.53865V25.9811C2.53865 26.6592 3.09025 27.2108 3.76831 27.2108H6.98228C6.98213 27.224 6.98124 27.2371 6.98124 27.2504C6.98124 29.3282 8.67172 31.0186 10.7495 31.0186C12.8272 31.0186 14.5177 29.3282 14.5177 27.2504C14.5177 27.2371 14.5168 27.224 14.5167 27.2108H27.9258C27.9256 27.224 27.9247 27.2371 27.9247 27.2504C27.9247 29.3282 29.6152 31.0186 31.693 31.0186C33.7707 31.0186 35.4612 29.3282 35.4612 27.2504C35.4612 27.2371 35.4603 27.224 35.4602 27.2108H37.4049C37.7335 27.2108 37.9999 26.9444 37.9999 26.6158V20.2692C38 18.7023 36.8439 17.4005 35.3399 17.1715ZM27.8455 10.7099H32.3278C33.0495 10.7099 33.6368 11.2971 33.6368 12.0189V12.0585H27.8455V10.7099ZM27.8455 17.1357V13.2485H33.1325L34.1043 17.1357H27.8455ZM10.7495 29.8288C9.32781 29.8288 8.17119 28.6723 8.17119 27.2506C8.17119 25.8288 9.32781 24.6723 10.7495 24.6723C12.1711 24.6723 13.3278 25.8288 13.3278 27.2506C13.3278 28.6723 12.1711 29.8288 10.7495 29.8288ZM31.6931 29.8288C30.2715 29.8288 29.1148 28.6723 29.1148 27.2506C29.1148 25.8288 30.2715 24.6723 31.6931 24.6723C33.1148 24.6723 34.2714 25.8288 34.2714 27.2506C34.2714 28.6723 33.1148 29.8288 31.6931 29.8288ZM36.8101 22.213H36.1357C35.7639 22.213 35.4613 21.9104 35.4613 21.5386V20.8643H36.81V22.213H36.8101Z" fill="white"/>
<path d="M10.7494 26.0208C10.0714 26.0208 9.51978 26.5723 9.51978 27.2504C9.51978 27.9285 10.0714 28.4801 10.7494 28.4801C11.4275 28.4801 11.9791 27.9285 11.9791 27.2504C11.9791 26.5723 11.4275 26.0208 10.7494 26.0208Z" fill="white"/>
<path d="M31.6931 26.0208C31.015 26.0208 30.4634 26.5723 30.4634 27.2504C30.4634 27.9285 31.015 28.4801 31.6931 28.4801C32.3712 28.4801 32.9228 27.9285 32.9228 27.2504C32.9228 26.5723 32.3712 26.0208 31.6931 26.0208Z" fill="white"/>
<path d="M24.7119 23.4822H15.8268C15.4982 23.4822 15.2318 23.7485 15.2318 24.0772C15.2318 24.4058 15.4981 24.6722 15.8268 24.6722H24.7119C25.0405 24.6722 25.3069 24.4058 25.3069 24.0772C25.3069 23.7485 25.0406 23.4822 24.7119 23.4822Z" fill="white"/>
<path d="M9.48024 20.9436H1.86436C1.53579 20.9436 1.26935 21.21 1.26935 21.5386C1.26935 21.8673 1.53572 22.1336 1.86436 22.1336H9.48024C9.80881 22.1336 10.0753 21.8673 10.0753 21.5386C10.0753 21.21 9.80881 20.9436 9.48024 20.9436Z" fill="white"/>
<path d="M20.6901 12.8673C20.4578 12.635 20.081 12.635 19.8487 12.8674L14.5575 18.1585L11.8049 15.406C11.5725 15.1736 11.1958 15.1736 10.9635 15.406C10.7311 15.6384 10.7311 16.015 10.9635 16.2474L14.1368 19.4207C14.2529 19.5369 14.4052 19.595 14.5575 19.595C14.7097 19.595 14.8621 19.5369 14.9781 19.4207L20.69 13.7088C20.9224 13.4764 20.9224 13.0997 20.6901 12.8673Z" fill="white"/>
</svg>
