<svg width="35" height="35" viewBox="0 0 35 35" fill="none" xmlns="http://www.w3.org/2000/svg">
<g clip-path="url(#clip0_1_652)">
<path d="M34.3374 16.1442L31.891 14.7319C31.6511 14.5934 31.3445 14.6755 31.2061 14.9154C31.0676 15.1552 31.1497 15.4619 31.3896 15.6004L33.836 17.0128C34.099 17.1969 34.0449 17.5187 33.7357 17.6065L32.9641 17.754C30.9735 18.1344 29.1285 19.0558 27.6286 20.4187L26.8801 21.0988C26.6745 21.309 26.3563 21.3805 26.0927 21.224L13.2282 13.7966C12.9884 13.6582 12.6817 13.7403 12.5433 13.9801C12.4048 14.2199 12.4869 14.5266 12.7268 14.6651L25.5913 22.0924C25.7636 22.1919 25.9477 22.2563 26.135 22.2883L24.2067 25.6282C23.6999 26.5061 22.5732 26.8081 21.6952 26.3011L16.6707 23.4002C16.6705 23.4001 16.6703 23.3999 16.67 23.3998L4.55362 16.4043C3.67568 15.8974 3.37381 14.7708 3.88069 13.8928L5.89237 10.4085C6.06642 10.7114 6.31743 10.9647 6.62799 11.1439L10.751 13.5244C10.9908 13.6627 11.2975 13.5806 11.436 13.3408C11.5745 13.101 11.4923 12.7944 11.2524 12.6559L7.12934 10.2754C6.89691 10.1412 6.73066 9.9245 6.66121 9.66529C6.59176 9.4062 6.62737 9.13564 6.76136 8.90335L8.95132 5.11016C9.50489 4.10493 10.8851 3.73456 11.8671 4.32895L29.4658 14.4895C29.7014 14.6267 30.0114 14.5481 30.1507 14.306C30.2892 14.0662 30.2071 13.7595 29.9672 13.621L12.3684 3.46051C11.6426 3.04147 10.7972 2.93018 9.98778 3.14708C9.17834 3.36399 8.50179 3.88311 8.08281 4.60881L3.01219 13.3914C2.22879 14.7482 2.69534 16.4894 4.05221 17.2728L9.61434 20.4841V23.2035C9.61434 24.4094 10.1959 25.4819 11.0932 26.1557L10.0347 28.1767C9.76227 28.0791 9.469 28.0256 9.16337 28.0256C7.87849 28.0256 6.80955 28.9657 6.6068 30.1939H4.13554C3.85978 28.6119 2.57544 27.3579 0.933379 27.1662C0.696514 27.1383 0.458418 27.2135 0.280273 27.3721C0.102197 27.5306 0 27.7582 0 27.9965V33.6652C0 33.9036 0.102129 34.1312 0.280273 34.2897C0.458281 34.4484 0.698291 34.5235 0.933311 34.4956C2.66827 34.293 4.00429 32.9049 4.17286 31.1967H6.63776C6.90177 32.3476 7.93352 33.2089 9.1633 33.2089C9.36448 33.2089 9.56484 33.1858 9.75892 33.14C10.0285 33.0765 10.1955 32.8064 10.1319 32.5369C10.0683 32.2673 9.79822 32.1002 9.52882 32.1639C9.41008 32.192 9.2871 32.2061 9.1633 32.2061C8.28721 32.2061 7.57442 31.4933 7.57442 30.6172C7.57442 29.7411 8.28721 29.0284 9.1633 29.0284C10.0394 29.0284 10.7521 29.7411 10.7521 30.6172C10.7521 30.7524 10.7352 30.8865 10.7019 31.0156C10.6327 31.2838 10.7939 31.5572 11.0621 31.6264C11.3302 31.6955 11.6037 31.5344 11.6729 31.2662C11.7273 31.0553 11.7549 30.8369 11.7549 30.6173C11.7549 29.8541 11.4232 29.1672 10.8966 28.6924L11.97 26.6427C12.3841 26.8039 12.8337 26.8934 13.304 26.8934C14.8226 26.8934 16.1688 25.9564 16.7241 24.589L21.1937 27.1695C21.8524 27.5504 22.6218 27.649 23.3499 27.4534C23.8997 27.306 24.3819 27.0047 24.7486 26.5859L26.8563 27.8028C27.119 27.9545 27.4062 28.0265 27.6896 28.0265C28.2653 28.0265 28.8258 27.7292 29.1361 27.1981C30.6285 27.9901 32.6182 27.3957 33.4339 25.9188C34.3031 24.4133 33.8319 22.496 32.3935 21.5569C32.6495 21.1533 32.7349 20.6681 32.6083 20.2051C32.4927 19.7736 32.2159 19.4129 31.8291 19.1897L31.7191 19.1262C32.1849 18.9628 32.6635 18.8323 33.1522 18.7388C33.9231 18.6389 34.8608 18.4303 34.9808 17.5114C35.074 16.9604 34.8214 16.4237 34.3374 16.1442ZM1.00283 33.4714V28.1905C2.26119 28.4269 3.18842 29.5306 3.18842 30.8309C3.18842 32.1313 2.26126 33.2349 1.00283 33.4714ZM12.8432 22.3483L14.0701 23.0566C14.0256 23.44 13.6993 23.7386 13.3042 23.7386C12.8787 23.7386 12.5325 23.3925 12.5325 22.9671C12.5325 22.7212 12.6507 22.4923 12.8432 22.3483ZM13.3042 25.8905C11.8225 25.8905 10.6172 24.6851 10.6172 23.2035V21.0631L11.9444 21.8294C11.6823 22.1432 11.5297 22.544 11.5297 22.9671C11.5297 23.9456 12.3257 24.7415 13.3042 24.7415C14.0686 24.7415 14.7216 24.2557 14.9708 23.5766L15.8447 24.0812C15.4762 25.1478 14.4584 25.8905 13.3042 25.8905ZM32.5655 25.4174C32.2637 25.9401 31.7764 26.3141 31.1934 26.4703C30.669 26.6108 30.1237 26.5594 29.6389 26.3282L31.8909 22.4276C32.8508 23.0885 33.1581 24.391 32.5655 25.4174ZM31.3279 20.0581C31.6433 20.2317 31.7593 20.6647 31.5729 20.9727L28.2724 26.6892C28.0878 27.0089 27.6774 27.1189 27.3578 26.9343L25.2974 25.7447L27.5478 21.8469C28.4449 20.9983 29.4461 20.1444 30.5604 19.615L31.3279 20.0581Z" fill="white"/>
<path d="M22.6532 16.0245C23.0455 16.0245 23.3634 15.7065 23.3634 15.3143C23.3634 14.922 23.0455 14.604 22.6532 14.604C22.2609 14.604 21.9429 14.922 21.9429 15.3143C21.9429 15.7065 22.2609 16.0245 22.6532 16.0245Z" fill="white"/>
<path d="M24.9263 17.2779C25.3186 17.2779 25.6365 16.9599 25.6365 16.5677C25.6365 16.1754 25.3186 15.8574 24.9263 15.8574C24.534 15.8574 24.216 16.1754 24.216 16.5677C24.216 16.9599 24.534 17.2779 24.9263 17.2779Z" fill="white"/>
<path d="M18.6686 5.0521C19.0608 5.0521 19.3788 4.73409 19.3788 4.34185C19.3788 3.9496 19.0608 3.63159 18.6686 3.63159C18.2763 3.63159 17.9583 3.9496 17.9583 4.34185C17.9583 4.73416 18.2763 5.0521 18.6686 5.0521Z" fill="white"/>
<path d="M22.7699 8.11922C22.9888 8.28526 23.3044 8.24404 23.4723 8.02201C25.1046 5.86568 25.1046 2.8537 23.4723 0.6973C23.3053 0.476568 22.9907 0.433091 22.7699 0.600093C22.5491 0.767232 22.5056 1.08175 22.6727 1.30255C24.0352 3.10259 24.0352 5.61678 22.6727 7.41675C22.5056 7.63756 22.5491 7.95208 22.7699 8.11922Z" fill="white"/>
<path d="M20.4041 6.64932C20.6071 6.83683 20.9245 6.82487 21.1127 6.62095C22.2831 5.35295 22.2831 3.36643 21.1127 2.0985C20.9249 1.89513 20.6076 1.88242 20.4041 2.07013C20.2006 2.25798 20.188 2.57524 20.3757 2.77868C21.1941 3.66523 21.1941 5.05422 20.3757 5.94078C20.1879 6.14421 20.2006 6.46147 20.4041 6.64932Z" fill="white"/>
</g>
<defs>
<clipPath id="clip0_1_652">
<rect width="35" height="35" fill="white"/>
</clipPath>
</defs>
</svg>
