<svg width="63" height="55" viewBox="0 0 63 55" fill="none" xmlns="http://www.w3.org/2000/svg">
<path d="M62.5693 23.5132L24.1787 1.34955C23.0764 0.715287 21.7676 0.543924 20.5392 0.873015C19.3107 1.20211 18.2628 2.00481 17.6252 3.10518L13.2054 10.7602L10.2631 15.8558C9.62847 16.9585 9.45705 18.2679 9.78645 19.4968C10.1158 20.7257 10.9191 21.7738 12.0202 22.4112L25.1828 30.0101L23.1358 33.5007C22.8635 33.9627 22.4756 34.3459 22.0102 34.6125C21.5449 34.8791 21.0182 35.0199 20.4819 35.0211H12.7969V29.164C12.7969 28.9356 12.7061 28.7165 12.5446 28.555C12.3831 28.3935 12.164 28.3027 11.9355 28.3027H7.25977V27.1914C7.25859 26.1801 6.85634 25.2105 6.14124 24.4954C5.42615 23.7803 4.45661 23.3781 3.44531 23.3769H0.861328C0.748199 23.3768 0.636166 23.3991 0.531636 23.4423C0.427105 23.4856 0.332128 23.549 0.252133 23.629C0.172138 23.709 0.108696 23.804 0.0654331 23.9085C0.0221702 24.0131 -6.45601e-05 24.1251 1.40799e-07 24.2382V53.4333C-6.45601e-05 53.5465 0.0221702 53.6585 0.0654331 53.763C0.108696 53.8675 0.172138 53.9625 0.252133 54.0425C0.332128 54.1225 0.427105 54.186 0.531636 54.2292C0.636166 54.2725 0.748199 54.2947 0.861328 54.2947H3.44531C4.45661 54.2935 5.42615 53.8912 6.14124 53.1761C6.85634 52.461 7.25859 51.4915 7.25977 50.4802V47.7441H11.9355C12.164 47.7441 12.3831 47.6534 12.5446 47.4918C12.7061 47.3303 12.7969 47.1112 12.7969 46.8828V42.65H20.4819C22.3478 42.646 24.1805 42.1563 25.7997 41.229C27.4188 40.3017 28.7687 38.9688 29.7163 37.3614L31.7899 33.8256L39.0049 37.9909C39.7313 38.4124 40.5561 38.6348 41.3959 38.6357C41.8181 38.6355 42.2384 38.5799 42.6461 38.4703C43.4295 38.2619 44.1469 37.8572 44.7305 37.2945C45.6742 37.7323 46.7018 37.9597 47.7422 37.9609C48.3798 37.9605 49.0145 37.8764 49.6302 37.7109C51.2006 37.2935 52.5835 36.3567 53.5534 35.0531L55.3174 36.0714C55.4154 36.1281 55.5236 36.1648 55.6358 36.1796C55.748 36.1944 55.862 36.187 55.9713 36.1577C56.0806 36.1284 56.183 36.0778 56.2728 36.0089C56.3625 35.9399 56.4378 35.854 56.4943 35.7559L62.8829 24.691C62.9396 24.5931 62.9765 24.485 62.9915 24.3728C63.0064 24.2606 62.9991 24.1466 62.97 24.0372C62.9409 23.9278 62.8905 23.8253 62.8218 23.7354C62.753 23.6455 62.6673 23.57 62.5693 23.5132ZM5.53711 50.4802C5.53659 51.0348 5.31604 51.5666 4.92386 51.9587C4.53169 52.3509 3.99993 52.5715 3.44531 52.572H1.72266V25.0996H3.44531C3.99993 25.1001 4.53169 25.3206 4.92386 25.7128C5.31604 26.105 5.53659 26.6367 5.53711 27.1914V50.4802ZM11.0742 46.0215H7.25977V30.0254H11.0742V46.0215ZM28.2299 36.4898C27.4349 37.8386 26.3024 38.9571 24.9439 39.7353C23.5853 40.5135 22.0475 40.9245 20.4819 40.9278H12.7969V36.7442H20.4819C21.3184 36.7424 22.1401 36.5228 22.8659 36.107C23.5918 35.6912 24.1969 35.0935 24.6217 34.3729L26.6766 30.8724L30.3 32.9642L28.2299 36.4898ZM39.8672 36.4991L12.8815 20.9194C12.1756 20.5109 11.6606 19.839 11.4495 19.0511C11.2383 18.2633 11.3484 17.4239 11.7554 16.7171L14.2656 12.3677L38.9965 26.646L46.5787 31.0235L44.068 35.375L44.0646 35.3804C43.9991 35.4915 43.9266 35.5984 43.8475 35.7003V35.7037C43.3933 36.2964 42.7392 36.7038 42.007 36.8501C41.2747 36.9964 40.5143 36.8717 39.8672 36.4991ZM49.1877 36.0468C48.0595 36.3518 46.8634 36.2889 45.7734 35.8671L48.0734 31.8839L52.0567 34.1834C51.323 35.0944 50.3175 35.7472 49.1868 36.0468H49.1877ZM55.4361 34.147L49.866 30.931L48.1852 29.9609L29.1685 18.9822L15.1279 10.8758L19.1171 3.96651C19.5258 3.26075 20.1977 2.74593 20.9855 2.535C21.7734 2.32407 22.6127 2.43425 23.3194 2.84137L60.9618 24.5749L55.4361 34.147Z" fill="#CF3535"/>
<path d="M51.7554 29.4653C52.257 29.7567 52.8267 29.9103 53.4067 29.9107C53.6979 29.9105 53.9878 29.8721 54.269 29.7966C55.0093 29.5983 55.6579 29.1495 56.1043 28.5266C56.5508 27.9038 56.7674 27.1454 56.7174 26.3807C56.6674 25.6159 56.3537 24.8922 55.8299 24.3329C55.3061 23.7735 54.6046 23.413 53.8448 23.3129C53.0851 23.2128 52.3141 23.3792 51.6632 23.7838C51.0124 24.1884 50.522 24.8061 50.2756 25.5317C50.0291 26.2574 50.0419 27.046 50.3118 27.7633C50.5816 28.4805 51.0918 29.082 51.7554 29.4653ZM52.0355 25.802C52.1397 25.6213 52.2786 25.4631 52.4443 25.3363C52.6099 25.2096 52.799 25.117 53.0007 25.0637C53.1355 25.0276 53.2745 25.0092 53.4141 25.009C53.7644 25.0091 54.1049 25.1247 54.3828 25.338C54.6606 25.5513 54.8604 25.8503 54.951 26.1887C55.0416 26.527 55.018 26.8858 54.8839 27.2095C54.7498 27.5331 54.5127 27.8034 54.2093 27.9785C53.9059 28.1536 53.5532 28.2237 53.2059 28.1779C52.8587 28.1321 52.5362 27.973 52.2885 27.7253C52.0409 27.4775 51.8819 27.155 51.8362 26.8077C51.7906 26.4604 51.8608 26.1078 52.036 25.8044L52.0355 25.802Z" fill="#CF3535"/>
<path d="M22.3945 20.7422L15.3365 16.6664C15.2385 16.6089 15.1301 16.5714 15.0176 16.556C14.905 16.5406 14.7905 16.5477 14.6807 16.5767C14.5709 16.6057 14.4679 16.6562 14.3777 16.7252C14.2874 16.7942 14.2118 16.8804 14.155 16.9788C14.0982 17.0771 14.0614 17.1858 14.0467 17.2984C14.0321 17.411 14.0399 17.5255 14.0696 17.6351C14.0994 17.7447 14.1506 17.8474 14.2202 17.9372C14.2897 18.0269 14.3764 18.102 14.4752 18.1582L21.5351 22.2335C21.7321 22.3365 21.9613 22.3594 22.1748 22.2972C22.3883 22.2351 22.5695 22.0929 22.6805 21.9003C22.7915 21.7076 22.8237 21.4795 22.7704 21.2637C22.7171 21.0478 22.5824 20.861 22.3945 20.7422Z" fill="#CF3535"/>
</svg>
