<svg width="20" height="20" viewBox="0 0 20 20" fill="none" xmlns="http://www.w3.org/2000/svg">
<g clip-path="url(#clip0_1_2269)">
<path d="M18.7833 5.34967C18.6843 4.95418 18.4827 4.59182 18.1989 4.29918C17.915 4.00654 17.5589 3.794 17.1666 3.68301C15.7333 3.33301 9.99998 3.33301 9.99998 3.33301C9.99998 3.33301 4.26665 3.33301 2.83332 3.71634C2.44102 3.82733 2.08496 4.03987 1.80111 4.33251C1.51725 4.62515 1.31564 4.98752 1.21665 5.38301C0.954328 6.83764 0.826013 8.31327 0.833316 9.79134C0.823966 11.2805 0.952289 12.7674 1.21665 14.233C1.32578 14.6162 1.53191 14.9648 1.8151 15.2451C2.0983 15.5254 2.449 15.7279 2.83332 15.833C4.26665 16.2163 9.99998 16.2163 9.99998 16.2163C9.99998 16.2163 15.7333 16.2163 17.1666 15.833C17.5589 15.722 17.915 15.5095 18.1989 15.2168C18.4827 14.9242 18.6843 14.5618 18.7833 14.1663C19.0436 12.7227 19.1719 11.2583 19.1666 9.79134C19.176 8.30214 19.0477 6.81526 18.7833 5.34967V5.34967Z" stroke="#828282" stroke-width="2" stroke-linecap="round" stroke-linejoin="round"/>
<path d="M8.125 12.5164L12.9167 9.79141L8.125 7.06641V12.5164Z" stroke="#828282" stroke-width="2" stroke-linecap="round" stroke-linejoin="round"/>
</g>
<defs>
<clipPath id="clip0_1_2269">
<rect width="20" height="20" fill="white"/>
</clipPath>
</defs>
</svg>
