<svg width="24" height="24" viewBox="0 0 24 24" fill="none" xmlns="http://www.w3.org/2000/svg">
<path d="M2.11905 7.80769C2.87545 11.2523 4.60534 14.4071 7.10295 16.8969C9.59276 19.3945 12.7476 21.1244 16.1921 21.8808C17.2738 22.0996 18.3982 21.9089 19.3472 21.3456C20.2961 20.7823 21.0021 19.8866 21.3279 18.8322L21.8411 17.2283L16.861 14.7383L14.4759 17.1234C12.7877 16.3902 11.2476 15.355 9.93125 14.0685C8.64483 12.7522 7.60959 11.212 6.87645 9.52379L9.26155 7.13869L6.77155 2.15869L5.16765 2.67189C4.11329 2.99779 3.21758 3.7037 2.65427 4.65268C2.09096 5.60165 1.90022 6.72604 2.11905 7.80769Z" fill="white"/>
</svg>
