<svg width="39" height="39" viewBox="0 0 39 39" fill="none" xmlns="http://www.w3.org/2000/svg">
<g clip-path="url(#clip0_1_2290)">
<path d="M37.8599 14.9027H29.0471C29.0498 14.7891 29.0514 14.6751 29.0514 14.5609C29.0514 6.5514 22.5353 0.0351562 14.5258 0.0351562C6.51624 0.0351562 -3.8147e-06 6.5514 -3.8147e-06 14.5609C-3.8147e-06 16.8118 0.527093 19.0464 1.52732 21.049L0.48453 27.1252C0.418481 27.5103 0.554227 27.9026 0.844339 28.1643C1.1343 28.4262 1.53842 28.5211 1.9148 28.4161L7.01118 26.9931C7.9725 27.5754 8.99241 28.0393 10.0513 28.3819V32.7443C10.0513 33.3739 10.5618 33.8844 11.1914 33.8844H26.8894L29.4928 38.3935C29.6965 38.7463 30.0728 38.9636 30.4801 38.9636C30.8874 38.9636 31.2638 38.7463 31.4674 38.3935L34.0708 33.8844H37.8599C38.4895 33.8844 39 33.3739 39 32.7443V16.0428C39 15.4132 38.4895 14.9027 37.8599 14.9027ZM7.19132 24.619C7.08871 24.619 6.98557 24.6329 6.88479 24.661L3.03648 25.7355L3.83925 21.058C3.88204 20.8081 3.84047 20.551 3.72084 20.3274C2.77837 18.5656 2.28016 16.5716 2.28016 14.5609C2.28016 7.80868 7.77352 2.31532 14.5258 2.31532C21.278 2.31532 26.7713 7.80868 26.7713 14.5609C26.7713 21.3131 21.278 26.8064 14.5258 26.8064C12.1311 26.8064 9.81122 26.1146 7.81684 24.8059C7.62918 24.6828 7.4115 24.619 7.19132 24.619ZM36.7198 31.6042H33.4126C33.0053 31.6042 32.6289 31.8215 32.4253 32.1742L30.4801 35.5433L28.5349 32.1742C28.3312 31.8215 27.9549 31.6042 27.5476 31.6042H12.3315V28.9193C13.0536 29.029 13.7864 29.0866 14.5258 29.0866C21.6402 29.0866 27.5759 23.9451 28.8138 17.1829H36.7198V31.6042Z" fill="white"/>
<path d="M7.94518 13.2206H21.1064C21.736 13.2206 22.2465 12.7101 22.2465 12.0805C22.2465 11.4509 21.736 10.9404 21.1064 10.9404H7.94518C7.31555 10.9404 6.8051 11.4509 6.8051 12.0805C6.8051 12.7101 7.31555 13.2206 7.94518 13.2206Z" fill="white"/>
<path d="M22.2465 17.0424C22.2465 16.4128 21.736 15.9023 21.1064 15.9023H7.94518C7.31555 15.9023 6.8051 16.4128 6.8051 17.0424C6.8051 17.6721 7.31555 18.1825 7.94518 18.1825H21.1064C21.736 18.1825 22.2465 17.6721 22.2465 17.0424Z" fill="white"/>
</g>
<defs>
<clipPath id="clip0_1_2290">
<rect width="39" height="39" fill="white"/>
</clipPath>
</defs>
</svg>
