<svg width="30" height="30" viewBox="0 0 30 30" fill="none" xmlns="http://www.w3.org/2000/svg">
<g clip-path="url(#clip0_1_610)">
<path d="M26.117 21.7425C26.5913 21.1954 26.8525 20.4948 26.8525 19.7695C26.8525 18.107 25.5001 16.7544 23.8377 16.7544C22.9624 16.7544 22.1317 17.1341 21.5584 17.7963C21.0841 18.3437 20.823 19.0445 20.823 19.7695C20.823 21.4319 22.1754 22.7843 23.8377 22.7843C24.7132 22.7842 25.544 22.4045 26.117 21.7425ZM21.7026 19.7695C21.7026 19.256 21.8874 18.7597 22.2232 18.3722C22.2232 18.3722 22.2233 18.3721 22.2234 18.3721C22.6294 17.903 23.2179 17.634 23.8377 17.634C25.0151 17.634 25.9729 18.592 25.9729 19.7696C25.9729 20.2831 25.7881 20.7793 25.4522 21.1667C25.0461 21.6358 24.4577 21.9048 23.8377 21.9048C22.6604 21.9047 21.7026 20.9468 21.7026 19.7695Z" fill="white"/>
<path d="M27.9002 15.7387C26.8486 14.6787 25.4549 14.0758 23.9757 14.0409C22.4175 14.0043 20.9472 14.5828 19.8342 15.6699C18.7209 16.7574 18.1077 18.2132 18.1077 19.7694C18.1077 20.5138 18.2495 21.2398 18.5293 21.9271C18.6208 22.152 18.8775 22.2601 19.1024 22.1686C19.3274 22.077 19.4355 21.8204 19.3439 21.5955C19.1072 21.014 18.9873 20.3996 18.9873 19.7694C18.9873 18.4521 19.5063 17.2197 20.4488 16.2992C21.391 15.3789 22.6366 14.8887 23.9549 14.9203C25.2058 14.9497 26.3852 15.4604 27.2757 16.3582C28.1663 17.2559 28.6676 18.4395 28.6875 19.6907C28.7045 20.77 28.3744 21.7966 27.7298 22.6639L25.3383 25.9615C24.9074 26.5558 24.6102 27.2209 24.4553 27.9382L24.2762 28.7665C24.2319 28.9716 24.0475 29.1203 23.8377 29.1203C23.628 29.1203 23.4436 28.9715 23.3993 28.7664L23.2202 27.9382C23.0652 27.2208 22.768 26.5557 22.3371 25.9614L20.2708 23.1123C20.1283 22.9157 19.8533 22.8719 19.6566 23.0145C19.46 23.1571 19.4162 23.4321 19.5588 23.6288L21.6251 26.4778C21.9839 26.9727 22.2314 27.5265 22.3605 28.124L22.5395 28.9523C22.6706 29.5594 23.2166 29.9999 23.8376 29.9999C24.4587 29.9999 25.0046 29.5593 25.1358 28.9523L25.3148 28.124C25.4439 27.5266 25.6913 26.9728 26.0502 26.4778L28.4386 23.1844C29.1969 22.1643 29.587 20.9514 29.5668 19.6767C29.5435 18.1971 28.9516 16.7985 27.9002 15.7387Z" fill="white"/>
<path d="M5.10775 7.20315C5.83407 7.20315 6.52349 6.88798 6.99886 6.33884C7.39243 5.88485 7.60923 5.30349 7.60923 4.70167C7.60923 4.33651 7.53171 3.98372 7.37878 3.65302C7.27683 3.43253 7.01544 3.33644 6.79507 3.43839C6.57458 3.54028 6.47855 3.80167 6.58044 4.0221C6.67941 4.23626 6.72968 4.46495 6.72968 4.70167C6.72968 5.09179 6.58923 5.4686 6.33406 5.76286C6.02562 6.11917 5.57866 6.3236 5.10775 6.3236C4.21343 6.3236 3.48587 5.59604 3.48587 4.70173C3.48587 4.31167 3.62632 3.93468 3.8815 3.64024C4.18993 3.28394 4.63689 3.0795 5.10781 3.0795C5.19089 3.0795 5.27427 3.08583 5.35572 3.09825C5.59583 3.13517 5.82019 2.97017 5.85693 2.73005C5.89366 2.48999 5.72884 2.26552 5.48872 2.22884C5.36339 2.20968 5.23525 2.19995 5.10775 2.19995C4.38142 2.19995 3.692 2.51513 3.21652 3.06444C2.823 3.51866 2.60626 4.10015 2.60626 4.70173C2.60632 6.08097 3.72845 7.20315 5.10775 7.20315Z" fill="white"/>
<path d="M3.26529 10.1244C3.54548 10.5107 3.73861 10.943 3.83939 11.4094L3.98271 12.0727C4.09638 12.5988 4.56953 12.9806 5.10783 12.9806C5.64613 12.9806 6.11927 12.5987 6.23295 12.0727L6.37627 11.4094C6.47705 10.943 6.67023 10.5107 6.95037 10.1244L8.86211 7.48829C9.48086 6.65602 9.7992 5.66625 9.78273 4.6261C9.76363 3.41872 9.2807 2.27748 8.42283 1.41276C7.56478 0.547914 6.42754 0.0559611 5.22039 0.0274845C3.94914 -0.00269127 2.74937 0.469633 1.84111 1.35668C0.932672 2.24397 0.432281 3.4319 0.432281 4.70162C0.432281 5.71401 0.750856 6.67764 1.3505 7.48413L3.26529 10.1244ZM2.4557 1.98586C3.17101 1.28719 4.10933 0.905688 5.10718 0.905688C5.13783 0.905688 5.16882 0.906039 5.19959 0.906801C6.17834 0.929828 7.10125 1.3295 7.79828 2.03215C8.49531 2.73481 8.88771 3.66088 8.90318 4.63998C8.91654 5.48467 8.6582 6.28811 8.15312 6.96768L6.23834 9.60791C5.88619 10.0935 5.64332 10.6371 5.51658 11.2235L5.37326 11.8867C5.34642 12.0109 5.2348 12.101 5.10789 12.101C4.98097 12.101 4.86929 12.0109 4.84252 11.8868L4.6992 11.2236C4.57246 10.6372 4.32964 10.0937 3.97738 9.60797L2.05955 6.96352C1.57052 6.30569 1.31201 5.52352 1.31201 4.70162C1.31183 3.67078 1.71812 2.70627 2.4557 1.98586Z" fill="white"/>
<path d="M25.2755 5.03701C25.1117 5.21631 25.1242 5.49451 25.3035 5.65834C25.3879 5.73545 25.494 5.77341 25.6 5.77341C25.7192 5.77341 25.8381 5.72519 25.9248 5.63027L25.9324 5.62207C25.9431 5.61064 25.9536 5.59916 25.9633 5.58791C26.2966 5.20347 26.4802 4.71111 26.4802 4.20152C26.4802 3.0334 25.5299 2.08301 24.3619 2.08301C23.7518 2.08301 23.1711 2.34644 22.7687 2.80582C22.6087 2.98851 22.627 3.26637 22.8097 3.42639C22.9924 3.58646 23.2702 3.56812 23.4303 3.38537C23.6657 3.11666 24.0053 2.9625 24.362 2.9625C25.045 2.9625 25.6007 3.51832 25.6007 4.20146C25.6007 4.49941 25.4935 4.78711 25.2983 5.01228L25.2755 5.03701Z" fill="white"/>
<path d="M21.0489 2.36704C21.2461 2.50878 21.5209 2.46366 21.6626 2.26644C22.3046 1.37271 23.3438 0.853567 24.4422 0.880461C25.2986 0.900618 26.1062 1.25042 26.7163 1.86531C27.3263 2.48025 27.6698 3.29072 27.6833 4.14741C27.695 4.88657 27.4689 5.58976 27.0265 6.18501L26.5719 6.81191C26.4293 7.00849 26.4731 7.28347 26.6697 7.42609C26.7477 7.48269 26.838 7.50988 26.9274 7.50988C27.0635 7.50988 27.1978 7.44683 27.2838 7.32823L27.7354 6.7055C28.2914 5.95755 28.5775 5.06816 28.5627 4.13347C28.5456 3.04843 28.1115 2.02286 27.3407 1.24585C26.5697 0.468782 25.5477 0.0266918 24.4629 0.0011449C23.0736 -0.0311988 21.7598 0.623411 20.9482 1.75333C20.9095 1.80741 20.7941 2.08292 20.9789 2.30435C20.9996 2.3272 21.0228 2.34835 21.0489 2.36704Z" fill="white"/>
<path d="M20.3298 26.3356C20.3305 26.2137 20.2812 26.0923 20.1832 26.0049C20.0019 25.8432 19.7238 25.8591 19.5622 26.0404C19.2829 26.3537 18.9918 26.6408 18.6959 26.8954C18.0752 27.1101 17.4406 27.2736 16.7942 27.3866C17.2846 26.3312 17.7053 24.8802 18.0267 23.1232C18.0705 22.8843 17.9122 22.6552 17.6733 22.6115C17.4347 22.5678 17.2053 22.726 17.1616 22.9649C16.7994 24.9451 16.2958 26.5509 15.734 27.5252C15.3669 27.5572 14.9967 27.574 14.6235 27.574C14.2489 27.574 13.8785 27.5565 13.5122 27.524C12.8643 26.4031 12.3292 24.5282 11.965 22.2347C12.8355 22.3054 13.7245 22.3419 14.6235 22.3419C15.456 22.3419 16.2966 22.3104 17.1216 22.2482C17.3638 22.23 17.5454 22.0188 17.5272 21.7767C17.5089 21.5345 17.2973 21.3533 17.0556 21.3711C16.2525 21.4317 15.4342 21.4624 14.6235 21.4624C13.6779 21.4624 12.7449 21.4208 11.8347 21.3414C11.5973 19.5648 11.458 17.5813 11.4406 15.5275H18.5724C18.8152 15.5275 19.0122 15.3307 19.0122 15.0877C19.0122 14.8843 18.8738 14.7136 18.6863 14.6634C18.6703 12.6327 18.5404 10.6856 18.315 8.92643C19.7828 9.09852 21.1781 9.37186 22.4528 9.73497C22.7234 10.7103 22.9211 11.7338 23.0366 12.7774C23.0615 13.0024 23.252 13.1689 23.4732 13.1689C23.4893 13.1689 23.5057 13.168 23.5221 13.1662C23.7635 13.1394 23.9375 12.9221 23.9108 12.6806C23.8115 11.7826 23.6535 10.8981 23.4426 10.0432C24.6377 10.4491 25.7012 10.9399 26.587 11.5046C26.808 12.2434 26.9613 13.0056 27.042 13.7829C27.0655 14.009 27.2564 14.1772 27.4789 14.1772C27.4941 14.1772 27.5094 14.1765 27.5249 14.1748C27.7665 14.1498 27.942 13.9336 27.9169 13.692C27.5776 10.4233 26.0444 7.402 23.5999 5.18475C21.1379 2.95175 17.95 1.72192 14.6235 1.72192C13.2665 1.72192 11.9273 1.92478 10.6433 2.32479C10.4114 2.39704 10.282 2.6436 10.3542 2.87552C10.4265 3.10737 10.6729 3.23663 10.905 3.16462C11.4125 3.00647 11.9295 2.88173 12.453 2.78997C11.8699 4.04645 11.3889 5.85606 11.0574 8.0269C10.5565 8.0818 10.0607 8.14702 9.57282 8.22518C9.333 8.26362 9.16976 8.4892 9.20819 8.72903C9.24663 8.96891 9.47222 9.13186 9.71204 9.09366C10.1136 9.02926 10.5203 8.97319 10.9312 8.92508C10.8609 9.47399 10.7997 10.0425 10.7484 10.628C10.7272 10.8699 10.9061 11.0833 11.1481 11.1045C11.1611 11.1056 11.1741 11.1062 11.187 11.1062C11.4125 11.1062 11.6045 10.9337 11.6245 10.7048C11.681 10.0605 11.7506 9.43567 11.8313 8.8345C12.7468 8.75475 13.6798 8.71309 14.6235 8.71309C15.5691 8.71309 16.5022 8.75469 17.4124 8.83409C17.6497 10.6107 17.789 12.5942 17.8065 14.6479H11.4412C11.447 13.9474 11.4659 13.2476 11.4991 12.5618C11.5108 12.3191 11.3237 12.1129 11.0811 12.1012C10.8375 12.0901 10.6323 12.2766 10.6206 12.5192C10.5867 13.2191 10.5675 13.9332 10.5617 14.6479H6.08872C6.09159 14.5202 6.09552 14.3893 6.10085 14.2527C6.11034 14.01 5.92132 13.8055 5.67862 13.796C5.43704 13.7855 5.23144 13.9755 5.22195 14.2182C5.21614 14.3667 5.21181 14.5092 5.20882 14.6478H2.14536C2.18585 13.4841 2.38642 12.3379 2.74413 11.2345C2.81901 11.0035 2.69239 10.7554 2.46136 10.6806C2.23026 10.6057 1.9823 10.7323 1.90741 10.9633C1.4764 12.2932 1.25784 13.6808 1.25784 15.0876C1.25784 18.6577 2.6481 22.0142 5.17255 24.5387C7.69706 27.0631 11.0534 28.4534 14.6236 28.4534C16.6403 28.4534 18.579 28.015 20.3857 27.1504C20.6048 27.0456 20.6974 26.783 20.5926 26.564C20.5381 26.4505 20.4411 26.3712 20.3298 26.3356ZM18.1891 8.02807C17.8609 5.87698 17.3835 4.05975 16.7949 2.79173C17.4437 2.90581 18.0805 3.07087 18.6999 3.28456C19.7968 4.22979 20.7673 5.56503 21.5091 7.15339C21.7454 7.65922 21.9584 8.19167 22.147 8.7442C20.9101 8.42329 19.5785 8.18141 18.1891 8.02807ZM26.1278 10.2274C25.2486 9.7686 24.2513 9.36735 23.1635 9.03155C22.9228 8.2434 22.6362 7.48801 22.3061 6.7812C21.8644 5.83555 21.3438 4.97235 20.7643 4.21515C21.5637 4.66725 22.3172 5.20913 23.0088 5.83649C24.3693 7.07042 25.4275 8.57071 26.1278 10.2274ZM14.6235 7.83372C13.7257 7.83372 12.8368 7.86993 11.9627 7.9403C12.3323 5.63036 12.8766 3.75372 13.5132 2.65087C13.8813 2.61847 14.2516 2.60165 14.6235 2.60165C14.996 2.60165 15.3666 2.61858 15.7345 2.65128C16.3825 3.77224 16.9177 5.64735 17.282 7.9413C16.4115 7.87063 15.5226 7.83372 14.6235 7.83372ZM12.4524 27.3847C11.7979 27.2695 11.1611 27.1028 10.5457 26.8897C9.05509 25.6055 7.87144 23.6949 7.09876 21.432C8.33597 21.7529 9.66833 21.9944 11.0579 22.1477C11.3861 24.2992 11.8637 26.1166 12.4524 27.3847ZM10.932 21.2492C9.46325 21.0771 8.06726 20.8035 6.79196 20.4401C6.36821 18.9093 6.12394 17.2469 6.08825 15.5277H10.5609C10.5774 17.5528 10.7072 19.4945 10.932 21.2492ZM2.14589 15.5277H5.2087C5.24075 17.1247 5.44671 18.678 5.80566 20.1329C4.61122 19.7273 3.54821 19.2368 2.66251 18.6727C2.36187 17.671 2.1838 16.6169 2.14589 15.5277ZM3.12318 19.9505C4.00161 20.4086 4.9987 20.8088 6.08527 21.1441C6.64554 22.9763 7.45706 24.6186 8.47308 25.9508C6.09435 24.5988 4.20036 22.4885 3.12318 19.9505Z" fill="white"/>
</g>
<defs>
<clipPath id="clip0_1_610">
<rect width="30" height="30" fill="white"/>
</clipPath>
</defs>
</svg>
