<svg width="47" height="43" viewBox="0 0 47 43" fill="none" xmlns="http://www.w3.org/2000/svg">
<path d="M31.7978 12.9067C34.4932 12.9067 36.6859 15.5549 36.6859 18.8097C36.6859 22.065 34.4932 24.7131 31.7978 24.7131C29.1027 24.7131 26.9099 22.065 26.9099 18.8097C26.9099 15.5549 29.1027 12.9067 31.7978 12.9067ZM31.7978 23.3482C33.7407 23.3482 35.321 21.3121 35.321 18.8097C35.321 16.3074 33.7407 14.2717 31.7978 14.2717C29.8552 14.2717 28.2749 16.3074 28.2749 18.8097C28.2749 21.3121 29.8552 23.3482 31.7978 23.3482Z" fill="#CF3535"/>
<path d="M13.9034 36.0142C14.0384 35.411 14.4003 34.8966 14.9221 34.5657C15.4439 34.2348 16.0635 34.1267 16.6663 34.2618C17.9115 34.5401 18.6974 35.7796 18.419 37.0247C18.1784 38.1 17.2205 38.8333 16.1616 38.8333C15.9949 38.8333 15.8253 38.8152 15.6561 38.7771C14.4109 38.4984 13.625 37.2593 13.9034 36.0142ZM15.954 37.4452C16.4648 37.5593 16.9727 37.2369 17.0872 36.7265C17.2013 36.2161 16.8789 35.7078 16.3684 35.5937C16.2988 35.578 16.2294 35.5706 16.1612 35.5706C15.7268 35.5706 15.3341 35.8713 15.2356 36.3121C15.1211 36.8225 15.4435 37.3308 15.954 37.4452Z" fill="#CF3535"/>
<path d="M4.31093 31.5813H10.2694C10.6462 31.5813 10.9519 31.887 10.9519 32.2638C10.9519 32.6409 10.6462 32.9462 10.2694 32.9462H4.31093C2.68651 32.9462 1.36494 34.2682 1.36494 35.8926C1.36494 37.517 2.68651 38.8386 4.31093 38.8386H12.0164C11.5572 37.9108 11.4289 36.8626 11.6581 35.8386L13.2652 28.6566C11.2248 27.999 9.42697 26.5715 8.2003 24.5682H6.25526C3.43403 24.5682 1.13887 22.273 1.13887 19.4518V11.704C1.13887 5.2504 6.38927 0 12.8429 0H34.8859C37.0745 0 39.209 0.60818 41.0587 1.75843C41.3786 1.95748 41.4863 2.38438 41.2777 2.69824C40.9642 3.17135 40.4502 2.98723 40.3379 2.91756C38.7049 1.90167 36.8196 1.36494 34.8859 1.36494C30.2821 1.36494 26.3721 4.38984 25.0374 8.55611H31.7978C36.8921 8.55611 41.0367 13.156 41.0367 18.8099C41.0367 20.3813 40.7161 21.8707 40.1445 23.2033H41.1341C43.3898 23.2033 45.225 21.3681 45.225 19.112V11.704C45.225 9.00931 44.1942 6.45823 42.3224 4.52101C42.0604 4.2498 42.0679 3.81757 42.3387 3.55595C42.6099 3.29398 43.0422 3.30145 43.3038 3.5723C45.423 5.7658 46.5899 8.6535 46.5899 11.704V19.112C46.5899 22.1206 44.1423 24.5682 41.1341 24.5682H39.4382C37.774 27.2796 34.9705 29.0636 31.7981 29.0636H27.0482L24.8707 38.7949C24.6055 39.9792 23.8953 40.9891 22.8706 41.6392C22.1337 42.1066 21.1015 42.514 19.4451 42.2364L15.1 41.2642H15.0996C14.3226 41.09 13.6217 40.7235 13.0469 40.2035H4.31093C1.93402 40.2035 0 38.2695 0 35.8922C0 33.5153 1.93402 31.5813 4.31093 31.5813ZM29.4041 1.36494H12.8429C7.14212 1.36494 2.50381 6.00325 2.50381 11.704V19.4518C2.50381 21.5202 4.18688 23.2033 6.25526 23.2033H19.4305C21.4992 23.2033 23.1819 21.5202 23.1819 19.4518V11.704C23.1819 7.22956 25.7057 3.33379 29.4041 1.36494ZM24.7011 9.92105C24.4609 10.6934 24.5469 12.4501 24.5469 12.4501C25.2777 11.4225 26.1741 10.5662 27.1843 9.92105H24.7011ZM39.6718 18.8099C39.6718 13.9085 36.1396 9.92105 31.7978 9.92105C28.6378 9.92105 25.7938 12.0424 24.5526 15.3257L24.5469 15.3236V19.4518C24.5469 20.0806 24.4321 20.6827 24.2238 21.2397C25.1814 25.0527 28.2685 27.6987 31.7978 27.6987C36.1396 27.6987 39.6718 23.7112 39.6718 18.8099ZM23.2882 22.8073C22.3495 23.885 20.9689 24.5682 19.4305 24.5682H9.8496C11.339 26.5431 13.5239 27.6987 15.8457 27.6987H27.1886C25.4664 26.6 24.0819 24.8966 23.2882 22.8073ZM19.7429 40.9045C21.4534 41.2869 23.156 40.2071 23.5388 38.497L25.6495 29.0636H22.4852L20.5253 37.8227C20.264 38.9914 19.568 39.9899 18.5646 40.6407L19.7429 40.9045ZM15.3979 39.9323C17.8857 40.5664 19.0082 38.353 19.1934 37.5245L21.0865 29.0636H15.8457C15.4235 29.0636 15.0058 29.0309 14.5938 28.9687L12.99 36.1364C12.8048 36.965 12.941 39.3056 15.3979 39.9323Z" fill="#CF3535"/>
<path d="M33.2697 21.0927C33.7058 20.4838 33.9561 19.6517 33.9561 18.81C33.9561 17.8396 33.6252 16.8941 33.0714 16.2802C32.819 16.0005 32.3875 15.9781 32.1074 16.2308C31.8276 16.4835 31.8056 16.9151 32.058 17.1948C32.3157 17.4802 32.5911 18.0546 32.5911 18.81C32.5911 19.373 32.434 19.9154 32.16 20.2979C31.9407 20.6043 31.999 21.0486 32.3174 21.2502C32.7817 21.5438 33.1364 21.2786 33.2697 21.0927Z" fill="#CF3535"/>
</svg>
