<svg width="43" height="43" viewBox="0 0 43 43" fill="none" xmlns="http://www.w3.org/2000/svg">
<g clip-path="url(#clip0_1_697)">
<path d="M33.1588 21.5029V20.2379C33.1588 19.89 32.8769 19.608 32.5289 19.608C32.181 19.608 31.899 19.89 31.899 20.2379V28.7013C31.4556 28.7535 30.9953 28.8035 30.5156 28.8507C30.1932 28.8823 29.9474 29.1535 29.9474 29.4775L29.9477 33.7191C29.9477 33.8969 30.0228 34.0663 30.1545 34.1858C30.2709 34.2913 30.4219 34.349 30.5775 34.349C30.598 34.349 30.6186 34.3479 30.6392 34.3459C31.0672 34.3039 31.4873 34.2588 31.8989 34.2111V37.668H11.101V34.2126C14.0597 34.556 17.3937 34.7481 20.8701 34.7689V36.0921C20.8701 36.3291 21.0031 36.5459 21.2142 36.6535C21.3044 36.6994 21.4023 36.722 21.4999 36.722C21.6307 36.722 21.7607 36.6814 21.8705 36.6015L27.4698 32.5293C27.6327 32.4108 27.7292 32.2214 27.7292 32.0199C27.7292 31.8184 27.6328 31.629 27.4698 31.5105L21.8705 27.4383C21.6789 27.299 21.4254 27.2789 21.2142 27.3864C21.0031 27.4939 20.8701 27.7108 20.8701 27.9478V29.2672C17.3827 29.2462 14.0454 29.0513 11.101 28.7029V20.2368C11.101 19.889 10.819 19.6069 10.4711 19.6069C10.1231 19.6069 9.84121 19.889 9.84121 20.2368V21.5029C5.22475 22.1268 0 23.3441 0 25.657V29.8989C0 31.4276 2.16445 32.6106 6.61713 33.5156C7.61486 33.7184 8.69507 33.8981 9.84121 34.0539V40.6732C9.84121 41.9561 10.885 42.9998 12.1678 42.9998H30.8322C32.115 42.9998 33.1588 41.9561 33.1588 40.6732V34.0528C35.5933 33.7226 37.6801 33.2908 39.2814 32.7824C41.7837 31.988 43 31.0448 43 29.8989V25.657C43 23.3441 37.7752 22.1268 33.1588 21.5029ZM6.86799 28.0392C6.44588 27.9535 6.05359 27.8663 5.68877 27.7784C6.89117 27.4886 8.29018 27.2316 9.84112 27.0168V28.5408C8.78628 28.3942 7.79081 28.2267 6.86799 28.0392ZM3.54708 24.1601C5.08265 23.6099 7.24894 23.1342 9.84112 22.775V25.7448C7.25297 26.0958 5.05225 26.565 3.42883 27.1112C1.77829 26.5029 1.25977 25.9426 1.25977 25.657C1.25977 25.5876 1.32401 24.9567 3.54708 24.1601ZM1.25977 29.8989V27.4748C2.33913 28.17 4.11767 28.7658 6.61713 29.2738C10.599 30.0831 15.8846 30.5288 21.5 30.5288C21.8479 30.5288 22.1299 30.2467 22.1299 29.8989V29.1845L26.0284 32.0198L22.1299 34.8551V34.1408C22.1299 33.7929 21.8479 33.5109 21.5 33.5109C15.9662 33.5109 10.7698 33.0742 6.86799 32.2811C2.43194 31.3794 1.25977 30.3285 1.25977 29.8989ZM31.899 40.6733C31.899 41.2615 31.4205 41.7402 30.8322 41.7402H12.1678C11.5795 41.7402 11.101 41.2615 11.101 40.6733V38.9277H31.8991V40.6733H31.899ZM33.1588 27.0168C34.707 27.2312 36.1039 27.4877 37.3049 27.7768C36.1811 28.05 34.8109 28.3117 33.1588 28.5403V27.0168ZM41.7402 29.8989C41.7402 30.5618 39.1462 32.166 31.2075 33.021L31.2073 30.0464C34.4844 29.6988 37.2669 29.1805 39.2815 28.5408C40.3216 28.2105 41.1395 27.8545 41.7402 27.469V29.8989ZM39.5582 27.1068C37.9361 26.5625 35.7401 26.0949 33.1588 25.7448V22.775C35.751 23.1342 37.9174 23.6099 39.4528 24.1601C41.676 24.9567 41.7402 25.5876 41.7402 25.657C41.7402 25.9811 41.1196 26.5303 39.5582 27.1068Z" fill="white"/>
<path d="M10.4711 17.8933C10.8191 17.8933 11.101 17.6113 11.101 17.2634V5.332H15.4463C15.5046 5.332 15.5597 5.35476 15.6008 5.396L16.2916 6.08677C16.5708 6.36593 16.942 6.51971 17.3369 6.51971H25.6269C26.0218 6.51971 26.393 6.36593 26.6722 6.08677L27.3629 5.39608C27.4036 5.35535 27.4599 5.332 27.5174 5.332H31.8992V17.2646C31.8992 17.6124 32.1811 17.8945 32.529 17.8945C32.877 17.8945 33.1589 17.6124 33.1589 17.2646V2.32662C33.1588 1.04376 32.1152 0 30.8322 0H12.1679C10.885 0 9.84125 1.04376 9.84125 2.32662V17.2634C9.84125 17.6113 10.1232 17.8933 10.4711 17.8933ZM11.101 2.32662C11.101 1.73839 11.5796 1.25977 12.1679 1.25977H30.8322C31.4205 1.25977 31.8991 1.73839 31.8991 2.32662V4.07223H27.5174C27.1226 4.07223 26.7514 4.22601 26.4721 4.50517L25.7813 5.19595C25.7401 5.23718 25.6852 5.25994 25.6268 5.25994H17.3368C17.2785 5.25994 17.2236 5.23718 17.1823 5.19595L16.4915 4.50509C16.2122 4.22593 15.841 4.07223 15.4462 4.07223H11.1009V2.32662H11.101Z" fill="white"/>
<path d="M19.1245 3.93852C19.593 3.93852 19.9729 3.55867 19.9729 3.09011C19.9729 2.62155 19.593 2.2417 19.1245 2.2417C18.6559 2.2417 18.2761 2.62155 18.2761 3.09011C18.2761 3.55867 18.6559 3.93852 19.1245 3.93852Z" fill="white"/>
<path d="M21.3303 3.71997H24.7237C25.0717 3.71997 25.3536 3.43795 25.3536 3.09009C25.3536 2.74222 25.0717 2.46021 24.7237 2.46021H21.3303C20.9823 2.46021 20.7004 2.74222 20.7004 3.09009C20.7004 3.43795 20.9824 3.71997 21.3303 3.71997Z" fill="white"/>
<path d="M35.3528 9.94659C35.4541 10.0074 35.5657 10.0363 35.676 10.0363C35.8901 10.0363 36.0988 9.92711 36.2169 9.73008L36.8799 8.62384C37.4488 11.0688 37.4761 14.3699 36.3311 17.2077C36.2094 17.5092 36.3446 17.8646 36.6366 18.0083C36.9612 18.1681 37.3641 18.0141 37.4993 17.6791C38.7978 14.4609 38.7016 10.9725 38.1315 8.44697L39.077 9.01361C39.3752 9.19241 39.7621 9.09558 39.9411 8.7971C40.1199 8.4987 40.023 8.11187 39.7246 7.93298L37.3959 6.53741C37.0976 6.35869 36.7107 6.45544 36.5317 6.75392L35.1362 9.08256C34.9574 9.38087 35.0545 9.7677 35.3528 9.94659Z" fill="white"/>
<path d="M3.61479 16.5879L5.94343 17.9836C6.23233 18.1567 6.62614 18.0694 6.80754 17.767L8.20311 15.4384C8.38191 15.14 8.28499 14.7532 7.9866 14.5743C7.68837 14.3956 7.30145 14.4923 7.12248 14.7908L6.4596 15.897C5.89069 13.4522 5.86331 10.1512 7.00827 7.31326C7.13844 6.99068 6.9824 6.62367 6.6599 6.49349C6.33681 6.36315 5.97014 6.51944 5.84004 6.84194C4.54156 10.0602 4.63781 13.5487 5.20798 16.0741L4.26248 15.5074C3.96425 15.3286 3.57725 15.4255 3.39845 15.724C3.21948 16.0222 3.3164 16.4091 3.61479 16.5879Z" fill="white"/>
<path d="M21.5001 15.3557C20.2172 15.3557 19.1735 16.3995 19.1735 17.6823C19.1735 18.9653 20.2172 20.009 21.5001 20.009C22.7829 20.009 23.8267 18.9653 23.8267 17.6823C23.8267 16.3995 22.7829 15.3557 21.5001 15.3557ZM21.5001 18.7493C20.9118 18.7493 20.4332 18.2706 20.4332 17.6823C20.4332 17.0941 20.9118 16.6155 21.5001 16.6155C22.0884 16.6155 22.5669 17.0941 22.5669 17.6823C22.5669 18.2706 22.0884 18.7493 21.5001 18.7493Z" fill="white"/>
<path d="M29.1389 15.2311L27.4421 12.2923C27.2683 11.991 26.8828 11.8878 26.5817 12.0617L24.8614 13.055C24.5375 12.8189 24.1914 12.6188 23.8266 12.4564V10.3862C23.8266 10.0384 23.5447 9.75635 23.1967 9.75635H19.8033C19.4553 9.75635 19.1734 10.0384 19.1734 10.3862V12.4564C18.8085 12.6189 18.4625 12.819 18.1386 13.055L16.3448 12.0193C16.0434 11.8452 15.6582 11.9486 15.4844 12.2498L13.7876 15.1887C13.6137 15.49 13.7169 15.8752 14.0182 16.0491L15.8117 17.0847C15.7906 17.2846 15.7799 17.4844 15.7799 17.6823C15.7799 17.8802 15.7906 18.08 15.8117 18.2798L14.0182 19.3154C13.7169 19.4894 13.6137 19.8746 13.7876 20.1759L15.4844 23.1147C15.6583 23.4161 16.0438 23.5193 16.3448 23.3453L18.1386 22.3096C18.4624 22.5456 18.8085 22.7457 19.1734 22.9082V24.8935C19.1734 25.2414 19.4553 25.5234 19.8033 25.5234H23.1967C23.5447 25.5234 23.8266 25.2414 23.8266 24.8935V22.9082C24.1915 22.7457 24.5375 22.5456 24.8614 22.3096L26.5817 23.3029C26.883 23.4767 27.2682 23.3736 27.4421 23.0723L29.1389 20.1335C29.3128 19.8322 29.2096 19.447 28.9083 19.273L27.1883 18.2799C27.2094 18.08 27.2201 17.8802 27.2201 17.6824C27.2201 17.4845 27.2094 17.2847 27.1883 17.0848L28.9083 16.0917C29.2096 15.9177 29.3128 15.5325 29.1389 15.2311ZM26.189 16.2069C25.9581 16.3402 25.8361 16.6045 25.8846 16.8668C25.9348 17.139 25.9602 17.4134 25.9602 17.6822C25.9602 17.9511 25.9347 18.2255 25.8846 18.4977C25.8361 18.76 25.9581 19.0243 26.189 19.1576L27.733 20.049L26.6661 21.8969L25.1215 21.0051C24.8903 20.8717 24.6 20.8984 24.397 21.072C23.9778 21.4307 23.5032 21.7052 22.9867 21.8879C22.735 21.9768 22.5668 22.2148 22.5668 22.4817V24.2636H20.4331V22.4817C20.4331 22.2148 20.2648 21.9768 20.0131 21.8879C19.4966 21.7052 19.022 21.4308 18.6028 21.072C18.3998 20.8982 18.1093 20.8717 17.8783 21.0051L16.2602 21.9393L15.1933 20.0915L16.8108 19.1576C17.0418 19.0244 17.1637 18.7601 17.1152 18.4978C17.065 18.2256 17.0396 17.9512 17.0396 17.6823C17.0396 17.4134 17.0651 17.139 17.1152 16.8669C17.1637 16.6046 17.0418 16.3403 16.8108 16.207L15.1933 15.2732L16.2602 13.4254L17.8783 14.3595C18.1095 14.4931 18.3998 14.4663 18.6028 14.2927C19.0221 13.9339 19.4967 13.6594 20.0131 13.4769C20.2647 13.3878 20.4331 13.1499 20.4331 12.883V11.0163H22.5668V12.883C22.5668 13.1499 22.7351 13.3879 22.9867 13.4769C23.5031 13.6594 23.9777 13.9339 24.397 14.2927C24.6 14.4663 24.8904 14.4929 25.1215 14.3595L26.6661 13.4678L27.733 15.3157L26.189 16.2069Z" fill="white"/>
</g>
<defs>
<clipPath id="clip0_1_697">
<rect width="43" height="43" fill="white"/>
</clipPath>
</defs>
</svg>
